<?xml version="1.0" standalone="no"?>
<!DOCTYPE svg PUBLIC "-//W3C//DTD SVG 1.1//EN" "http://www.w3.org/Graphics/SVG/1.1/DTD/svg11.dtd" >
<svg xmlns="http://www.w3.org/2000/svg">
<metadata></metadata>
<defs>
<font id="trackregular" horiz-adv-x="522" >
<font-face units-per-em="2048" ascent="1536" descent="-512" />
<missing-glyph horiz-adv-x="577" />
<glyph horiz-adv-x="0" />
<glyph unicode="&#xd;" horiz-adv-x="682" />
<glyph unicode=" "  horiz-adv-x="577" />
<glyph unicode="&#x09;" horiz-adv-x="577" />
<glyph unicode="&#xa0;" horiz-adv-x="577" />
<glyph unicode="!" d="M121 498v1075q0 26 18.5 45.5t46.5 19.5h140q28 0 47.5 -19.5t19.5 -45.5v-1075q0 -26 -19.5 -46t-47.5 -20h-140q-28 0 -46.5 20t-18.5 46zM123 217q0 26 17.5 46t45.5 20h140q28 0 47.5 -20t19.5 -46v-151q0 -26 -19.5 -46t-47.5 -20h-140q-28 0 -44.5 20t-16.5 46z " />
<glyph unicode="&#x22;" horiz-adv-x="862" d="M104 1130v451q0 28 20 47t46 19h125q26 0 45.5 -19t19.5 -47v-451q0 -28 -19.5 -47.5t-45.5 -19.5h-125q-26 0 -46 19.5t-20 47.5zM506 1130v451q0 28 19.5 47t45.5 19h125q26 0 46 -19t20 -47v-451q0 -28 -20 -47.5t-46 -19.5h-125q-26 0 -45.5 19.5t-19.5 47.5z" />
<glyph unicode="#" horiz-adv-x="1458" d="M2 481v129q0 26 16.5 46t44.5 20h152l57 231h-127q-28 0 -46.5 20t-18.5 46v129q0 26 18.5 45.5t46.5 19.5h193l104 406q6 26 30 45.5t52 19.5h140q28 0 42.5 -19.5t8.5 -45.5l-105 -406h318l104 406q6 26 30 45.5t52 19.5h139q28 0 43 -19.5t9 -45.5l-105 -406h125 q29 0 48.5 -19.5t19.5 -45.5v-129q0 -26 -20 -46t-48 -20h-190l-58 -231h166q28 0 48 -20t20 -46v-129q0 -25 -19.5 -45t-48.5 -20h-231l-88 -350q-6 -25 -31.5 -45.5t-54.5 -20.5h-140q-28 0 -40.5 20t-6.5 46l88 350h-317l-88 -350q-6 -26 -31 -46t-53 -20h-135 q-28 0 -41.5 20t-7.5 46l84 350h-82q-28 0 -47 19.5t-19 45.5zM487 676h318l57 231h-317z" />
<glyph unicode="$" horiz-adv-x="1368" d="M96 508q0 19 1.5 30.5t7.5 24.5t20 19t37 6h139q49 0 61 -49q7 -24 7 -66q0 -1 4 -55q14 -64 60.5 -110.5t111.5 -59.5v459q-77 20 -135.5 40t-120.5 53t-102 72.5t-65.5 97.5t-25.5 128v28q0 91 13 142l-3 -2q29 157 153 264t286 125v108q0 26 18.5 46t46.5 20h140 q28 0 47.5 -20t19.5 -46v-108q143 -21 264 -115q70 -56 109 -156t35 -217q-1 -21 -2.5 -30.5t-7.5 -23.5t-19.5 -20t-36.5 -6h-135q-28 0 -46 20t-20 46q-4 104 -39 158.5t-102 72.5v-462q33 -10 92 -26t80 -24q78 -26 144 -69q66 -45 104.5 -120t38.5 -175 q0 -118 -43.5 -233.5t-112.5 -176.5q-109 -98 -303 -114v-99q0 -26 -19.5 -45.5t-47.5 -19.5h-140q-28 0 -46.5 19.5t-18.5 45.5v101q-119 11 -218 70t-159 157q-44 64 -57 133q-15 77 -15 162zM364.5 1169.5q-1.5 -15.5 7 -47.5t31.5 -55q40 -40 89 -53l53 -15v387 q-65 -18 -113 -64t-61 -110v2q-5 -29 -6.5 -44.5zM817 250q71 18 119.5 62t60.5 108q4 28 4 41q6 87 -30 119q-40 33 -154 63v-393z" />
<glyph unicode="%" horiz-adv-x="1808" d="M66 1122v400q0 128 88.5 216.5t212.5 88.5h32q129 0 223.5 -95t94.5 -225v-370q0 -130 -94.5 -225t-223.5 -95h-32q-124 0 -212.5 88.5t-88.5 216.5zM240.5 18q-6.5 18 11.5 43l1071 1721q2 3 7 10t6.5 9t5 7t5.5 6.5l6 4.5t7 4t7.5 2t9.5 1.5t12 0.5h159q29 0 37 -20.5 t-10 -45.5l-1071 -1720q-19 -27 -29.5 -34t-38.5 -7h-160q-29 0 -35.5 18zM256 1122q0 -46 33 -78t78 -32h32q53 0 90 37t37 88v370q0 54 -36.5 89.5t-90.5 35.5h-32q-45 0 -78 -32t-33 -78v-400zM1083 305v400q0 128 88.5 216.5t212.5 88.5h33q129 0 223.5 -95t94.5 -225 v-371q0 -130 -94.5 -224.5t-223.5 -94.5h-33q-124 0 -212.5 88.5t-88.5 216.5zM1274 305q0 -47 32.5 -78.5t77.5 -31.5h33q54 0 89.5 35t35.5 89v371q0 52 -36 88.5t-89 36.5h-33q-45 0 -77.5 -31.5t-32.5 -78.5v-400z" />
<glyph unicode="&#x26;" horiz-adv-x="1499" d="M51 559q-2 155 40 261.5t157 189.5q-27 62 -27 172q0 85 27.5 166.5t76.5 146.5t124.5 105t164.5 40h109q81 0 151.5 -36t118 -95t74.5 -134.5t27 -153.5v-125q0 -52 -47 -52h-162q-23 0 -34.5 20.5t-12.5 51.5t-3 69t-5.5 72.5t-21.5 62.5t-50 38q-31 10 -86 10 q-117 0 -156 -51.5t-39 -173.5v-13q14 -30 84 -107t139.5 -146.5t163 -160t109.5 -106.5v17q0 65 49 65h164q19 0 31 -12.5t15.5 -36.5t4.5 -42.5t-0.5 -48.5t-1.5 -36q0 -102 -29 -166q7 -7 42 -44t67.5 -72.5t68.5 -76t58 -71t22 -41.5q0 -20 -15 -32.5t-36 -12.5h-211 q-7 0 -17 5t-21.5 15t-22 19.5t-23.5 24.5t-20.5 23.5t-19 22t-13.5 15.5q-144 -125 -332 -125h-158q-154 0 -274.5 76t-185 203t-64.5 280zM307 580q0 -133 69 -223.5t199 -90.5h158q89 0 154 56l-475 489q-53 -36 -79 -98t-26 -133z" />
<glyph unicode="'" horiz-adv-x="462" d="M104 1130v451q0 28 20 47t46 19h125q26 0 45.5 -19t19.5 -47v-451q0 -28 -19.5 -47.5t-45.5 -19.5h-125q-26 0 -46 19.5t-20 47.5z" />
<glyph unicode="(" horiz-adv-x="755" d="M57 1217v159q0 181 117 323t293 171q47 8 133 8h23q30 0 49.5 -17t19.5 -46v-140q0 -29 -20 -48t-49 -19h-23q-80 0 -125 -19q-63 -26 -104 -86t-41 -127v-1220q0 -67 40.5 -124.5t104.5 -84.5q45 -19 125 -19h23q29 0 49 -19t20 -48v-140q0 -29 -19.5 -46t-49.5 -17h-23 q-86 0 -133 8q-114 18 -207.5 90.5t-146 178.5t-52.5 221z" />
<glyph unicode=")" horiz-adv-x="755" d="M57 1675v140q0 29 20 46t50 17h23q84 0 133 -8q176 -29 292.5 -171t116.5 -323v-1220q0 -178 -116.5 -319.5t-292.5 -170.5q-47 -8 -129 -8h-23q-30 0 -50 17t-20 46v140q0 29 20 48t50 19h21q72 0 122 19q63 27 104.5 85t41.5 124v1220q0 67 -42 126.5t-104 86.5 q-50 19 -124 19h-23q-30 0 -50 19t-20 48z" />
<glyph unicode="*" horiz-adv-x="854" d="M44.5 1153.5q-1.5 11.5 5.5 21t22 17.5l123 63l-119 74q-20 12 -25 33.5t6 44.5l72 96q30 40 76 13l92 -58q0 20 1 60t1 59q0 57 55 57h103q23 0 38 -15t15 -38l2 -123l92 58q44 27 74 -13l74 -96q25 -48 -19 -78l-119 -76q21 -12 58.5 -30t56.5 -29q58 -32 21 -82 l-74 -104q-30 -44 -74 -17l-90 51q0 -16 -1 -49t-1 -51q0 -57 -53 -57h-103q-55 0 -55 57v102l-100 -55q-45 -26 -76 21l-64 104q-7 12 -10 20t-4.5 19.5z" />
<glyph unicode="+" horiz-adv-x="1007" d="M102 715v129q0 26 19 45.5t47 19.5h203v201q0 28 19.5 48t45.5 20h129q26 0 46 -20t20 -48v-201h198q29 0 48.5 -19.5t19.5 -45.5v-129q0 -26 -20 -46t-48 -20h-198v-200q0 -28 -20 -47t-46 -19h-129q-26 0 -45.5 19t-19.5 47v200h-203q-28 0 -47 20t-19 46z" />
<glyph unicode="," d="M100 66v151q0 26 19 46t47 20h160q28 0 47.5 -20t19.5 -46v-151q6 -8 -6 -27l-74 -174q-7 -19 -18 -25t-31 -6h-86q-8 0 -14 1t-9 4l-5 5t-2 6.5v7t1 7.5t1 6l32 129h-16q-28 0 -47 20t-19 46z" />
<glyph unicode="-" horiz-adv-x="1007" d="M90 715v129q0 26 19 45.5t47 19.5h661q29 0 48.5 -19.5t19.5 -45.5v-129q0 -26 -20 -46t-48 -20h-661q-28 0 -47 20t-19 46z" />
<glyph unicode="." d="M121 66v151q0 26 18.5 46t46.5 20h140q28 0 47.5 -20t19.5 -46v-151q0 -26 -19.5 -46t-47.5 -20h-140q-28 0 -46.5 20t-18.5 46z" />
<glyph unicode="/" horiz-adv-x="1116" d="M72.5 20.5q-10.5 20.5 1.5 45.5l694 1720q15 45 72 45h159q29 0 40.5 -20.5t0.5 -45.5l-718 -1720q-20 -45 -76 -45h-135q-28 0 -38.5 20.5z" />
<glyph unicode="0" horiz-adv-x="1335" d="M125 473v694q0 207 147 350.5t351 143.5h59q106 0 203.5 -41t168.5 -111t113.5 -166t42.5 -202v-641q0 -105 -42.5 -201t-113.5 -165t-168.5 -109.5t-203.5 -40.5h-59q-134 0 -248 63.5t-182 176.5t-68 249zM393 473q0 -93 68.5 -159t161.5 -66h59q106 0 182 74t76 178 v641q0 104 -76 178t-182 74h-59q-93 0 -161.5 -66.5t-68.5 -159.5v-694z" />
<glyph unicode="1" horiz-adv-x="1011" d="M68 82v100q0 43 16 61.5t59 18.5h222v1110h-215q-39 0 -52.5 20t-13.5 62v105q0 43 17 61t63 18h407q23 0 37 -6t20 -18.5t7.5 -24t1.5 -30.5v-1297h233q46 0 63 -18.5t17 -61.5v-100q0 -42 -13 -62t-52 -20h-752q-39 0 -52 20t-13 62z" />
<glyph unicode="2" horiz-adv-x="1261" d="M80 446q0 62 6.5 93t33.5 64.5t87 70.5l571 442l66 55q66 72 51 146t-117 74h-219q-100 0 -142 -25.5t-59 -99.5q-4 -54 -4 -56v-8q0 -40 -13.5 -56t-53.5 -16h-137q-41 0 -53.5 15.5t-12.5 56.5v37q0 133 47 229q31 60 117 125q82 64 311 64h225q97 0 173.5 -28 t121.5 -76t71 -109t24.5 -130t-21.5 -136.5t-63.5 -130.5t-104.5 -109l-635 -481v-176h752q28 0 48.5 -22.5t20.5 -49.5v-139q0 -26 -20.5 -48t-48.5 -22h-957q-28 0 -45.5 21.5t-17.5 48.5z" />
<glyph unicode="3" horiz-adv-x="1294" d="M82 418v37q0 41 11.5 56t51.5 15h138q40 0 53.5 -15.5t13.5 -55.5v-9q0 -1 4 -55q17 -74 59 -99.5t142 -25.5h219q100 0 135 84q35 86 -51 185q-17 24 -65 61l-236 184q-43 34 -54 69.5t-0.5 63.5t38.5 70l256 379h-586q-54 0 -68 14t-14 68v115q0 22 1 31t7 23t21 19.5 t41 5.5h886q28 0 47 -19.5t19 -45.5v-129q0 -29 -16 -45l-328 -469l188 -164q71 -49 120.5 -116.5t69 -139t18 -145t-32.5 -138.5t-81.5 -116t-130.5 -81t-178 -30h-225q-229 0 -311 61q-88 66 -115 125q-47 99 -47 232z" />
<glyph unicode="4" horiz-adv-x="1337" d="M41 467v88q0 27 14 51l754 1012l4 4q22 16 61 16h142q30 0 45 -12.5t17.5 -26.5t2.5 -40v-910h127q54 0 67 -14t13 -68v-100q0 -25 -3 -40.5t-19 -28.5t-45 -13h-140v-305q0 -46 -18.5 -63t-61.5 -17h-110q-42 0 -62 13.5t-20 52.5v319h-705q-40 0 -51.5 21.5t-11.5 60.5 zM397 649h412v561z" />
<glyph unicode="5" horiz-adv-x="1292" d="M113 420v37q0 41 12 56t53 15h137q40 0 54 -15.5t14 -55.5v-8q0 -2 4 -56q17 -74 59 -99.5t142 -25.5h194q102 0 117 74q2 4 2 18v183q0 33 -3 59.5t-7 46t-13.5 35t-16 25.5t-22 17.5t-24.5 11.5t-29.5 6.5t-31 3.5t-35.5 2q-222 5 -522 -2q-29 0 -50 22.5t-16 48.5 l-4 748q0 26 19 47.5t47 21.5h858q28 0 48.5 -21.5t20.5 -47.5v-140q0 -27 -20.5 -49t-48.5 -22h-652v-338h363q128 0 229 -49q57 -28 125 -115q64 -82 64 -311v-189q0 -71 -24 -133.5t-71 -112t-123.5 -78t-173.5 -28.5h-200q-230 0 -312 61q-90 69 -116 125 q-47 99 -47 232z" />
<glyph unicode="6" horiz-adv-x="1318" d="M109 381v862q0 104 42 192t128 144.5t200 56.5h230q229 0 321 -65q95 -65 125 -129q49 -101 49 -230v-36q0 -41 -12 -56.5t-53 -15.5h-138q-40 0 -53.5 16t-13.5 56v8q0 1 -4 55q-17 73 -68.5 102t-152.5 29h-224q-62 -6 -83 -38.5t-21 -96.5v-133l516 -297 q23 -14 160 -103q50 -33 86.5 -82t57 -104t25 -115.5t-7 -117.5t-41.5 -108.5t-74.5 -90t-111 -61.5t-147.5 -23h-365q-192 0 -281 101.5t-89 279.5zM381 381q0 -33 18 -74q21 -35 95 -35h335q65 0 93 66q27 71 -35 133q-8 13 -33 31q-5 5 -133 88q-78 50 -187.5 118 t-152.5 95v-422z" />
<glyph unicode="7" horiz-adv-x="1259" d="M53 1196v57q0 177 89.5 279t281.5 102h377q118 0 202.5 -32.5t126 -86.5t52.5 -125t-9 -149t-67 -156l-596 -1015q-21 -37 -45.5 -53.5t-61.5 -16.5h-176q-43 0 -54.5 30t17.5 81l668 1108q20 34 23.5 66t-14.5 54.5t-58 22.5h-371q-73 0 -94 -37q-18 -37 -18 -72v-57 q0 -26 -20 -46t-48 -20h-139q-28 0 -47 20t-19 46z" />
<glyph unicode="8" horiz-adv-x="1294" d="M62 347q1 69 20 136t61 129t101 107l168 127l-123 92q-118 89 -168 218.5t-14.5 253.5t151.5 192q94 55 231 55h295q85 0 154.5 -22.5t115.5 -60.5t76 -89t40 -108t3 -118.5t-30 -119t-63.5 -110t-94.5 -91.5l-133 -96l172 -123q61 -44 105.5 -106t64.5 -129t21.5 -136.5 t-24.5 -131.5t-71.5 -110.5t-122.5 -77t-174 -28.5h-379q-94 0 -168.5 28.5t-119 77t-70 110.5t-24.5 131zM334 336q15 -76 117 -76h366q102 0 117 76q15 80 -51 149l-66 70l-186 147l-180 -147q-56 -56 -66 -70q-66 -69 -51 -149zM379 1327q-17 -96 51 -156l66 -59 l143 -111l139 111l66 59q68 59 51 150q-15 80 -117 80h-258q-68 0 -98.5 -16t-42.5 -58z" />
<glyph unicode="9" horiz-adv-x="1325" d="M89.5 1198q-13.5 77 3 156t59.5 142t123.5 102.5t187.5 39.5h364q191 0 281 -102t90 -279v-862q0 -104 -42 -192t-128.5 -144.5t-200.5 -56.5h-229q-228 0 -322 66q-103 77 -126 127q-48 101 -48 231v37q0 41 12.5 56.5t53.5 15.5h137q40 0 54 -16t14 -56v-8q0 -2 4 -56 q17 -73 68.5 -102t152.5 -29h223q62 6 83.5 39t21.5 96v134l-516 297q-39 23 -160 102q-64 44 -105.5 114.5t-55 147.5zM383 1298q-28 -66 37 -131q7 -9 33 -32q2 -2 131 -86l342 -213v421q0 37 -21 72q-15 37 -92 37h-336q-67 0 -94 -68z" />
<glyph unicode=":" d="M121 66v151q0 26 18.5 46t46.5 20h140q28 0 47.5 -20t19.5 -46v-151q0 -26 -19.5 -46t-47.5 -20h-140q-28 0 -46.5 20t-18.5 46zM121 799v151q0 26 18.5 46t46.5 20h140q28 0 47.5 -20t19.5 -46v-151q0 -26 -19.5 -46t-47.5 -20h-140q-28 0 -46.5 20t-18.5 46z" />
<glyph unicode=";" d="M109 66v151q0 26 18.5 46t46.5 20h160q28 0 47.5 -20t19.5 -46v-151q0 -12 -6 -27l-73 -174q-7 -19 -18 -25t-32 -6h-86q-8 0 -14 1t-9 4l-5 5t-2 6.5v7t1 7.5t1 6l32 129h-16q-28 0 -46.5 20t-18.5 46zM121 799v151q0 26 18.5 46t46.5 20h140q28 0 47.5 -20t19.5 -46 v-151q0 -26 -19.5 -46t-47.5 -20h-140q-28 0 -46.5 20t-18.5 46z" />
<glyph unicode="&#x3c;" horiz-adv-x="1007" d="M154 733q0 23 24 51t166 168q165 163 295 293q17 17 41 17t41 -17l106 -104q17 -24 17 -41q0 -24 -17 -41l-325 -326l307 -307q16 -16 16 -41t-16 -41l-104 -104q-17 -17 -41 -17t-41 17q-158 158 -332 327q-101 97 -119 119t-18 47z" />
<glyph unicode="=" horiz-adv-x="1007" d="M102 487v129q0 26 19 46t47 20h661q28 0 48 -20t20 -46v-129q0 -25 -19.5 -45t-48.5 -20h-661q-28 0 -47 19.5t-19 45.5zM102 920v129q0 26 19 45.5t47 19.5h661q29 0 48.5 -20t19.5 -45v-129q0 -26 -20 -46t-48 -20h-661q-28 0 -47 20t-19 46z" />
<glyph unicode="&#x3e;" horiz-adv-x="1007" d="M154 1100q0 19 16 41l106 104q17 17 41 17t41 -17q178 -181 363 -363q90 -89 106.5 -108.5t16.5 -40.5q0 -25 -17.5 -46t-119.5 -120q-174 -169 -332 -327q-17 -17 -41 -17t-41 17l-105 104q-16 16 -16 41t16 41l308 307l-326 326q-16 16 -16 41z" />
<glyph unicode="?" horiz-adv-x="1353" d="M57 1196v37q0 133 47 229q28 55 127 129q94 66 322 66h334q92 0 165.5 -29t118 -78t71.5 -111t27.5 -130.5t-16 -133t-56.5 -122t-97 -95.5q-121 -79 -160 -102l-149 -82v-299q0 -33 -17 -49t-59 -16h-137q-28 0 -44 19.5t-16 45.5v281q0 48 2.5 72.5t15 54t39 52 t72.5 48.5l234 133q55 45 65 55q52 58 25 136q-24 78 -90 84h-328q-101 0 -152.5 -29t-68.5 -102q-4 -54 -4 -56v-8q0 -40 -14 -56t-54 -16h-137q-41 0 -53.5 15.5t-12.5 56.5zM518 66v151q0 26 19 46t47 20h139q28 0 48 -20t20 -46v-151q0 -26 -20 -46t-48 -20h-139 q-28 0 -47 20t-19 46z" />
<glyph unicode="A" horiz-adv-x="1411" d="M25 66q0 4 119 355t249 728.5t154 435.5q9 20 14.5 28.5t18.5 16.5t32 8h181q9 0 15.5 -1t12.5 -5t9.5 -6t8 -9t6 -9.5t6 -11.5l5.5 -11l524 -1495q2 -14 2 -24q0 -66 -65 -66h-148q-20 0 -33 8t-18 16t-14 29l-186 539l-504 -223l-113 -316q-10 -23 -13.5 -30t-17.5 -15 t-37 -8h-141q-26 0 -46.5 19t-20.5 47zM537 739l282 125q-43 113 -47 129q-3 12 -10 32t-10 32q-5 13 -13.5 39.5t-17.5 53t-19 54.5z" />
<glyph unicode="B" horiz-adv-x="1441" d="M119 1573q0 29 19 47t48 18h672q144 0 244 -102.5t100 -245.5q0 -106 -37 -170q-38 -66 -164 -133q167 -31 242.5 -119t75.5 -254v-170q0 -184 -130 -314t-315 -130h-688q-28 0 -45.5 20t-17.5 46zM391 272h483q71 0 123 52l21 24q31 37 31 96q0 12 1 31t1 31q0 9 1 28.5 t1 28.5q0 102 -42 148.5t-106 46.5h-262l-252 -137v-349zM391 915q167 87 332.5 184.5t191.5 137.5q13 19 13 53q0 31 -20 53.5t-50 22.5h-467v-451z" />
<glyph unicode="C" horiz-adv-x="1546" d="M115 641v356q0 181 89 334.5t242.5 243.5t333.5 90q247 0 428.5 -154t231.5 -397q0 -1 -1 -10t-1 -10q-18 -60 -64 -60h-137q-24 0 -37.5 11t-25.5 34q-3 9 -12.5 35t-13.5 36.5t-12 29t-16 32t-18 27.5q-56 76 -140 118t-182 42q-164 0 -281.5 -118t-117.5 -284v-356 q0 -166 117.5 -283.5t281.5 -117.5q98 0 182 42.5t144 120.5q47 63 74 177l-2 -5q9 56 63 56h137q28 0 47 -20t19 -46q0 -52 -27 -127q-70 -198 -249.5 -329.5t-387.5 -131.5q-181 0 -334 89t-242 242t-89 333z" />
<glyph unicode="D" horiz-adv-x="1527" d="M117 1573q0 25 20 45t49 20h580q176 0 326 -87.5t237.5 -237t87.5 -324.5v-340q0 -175 -87.5 -324.5t-237.5 -237t-326 -87.5h-580q-29 0 -47 18.5t-18 47.5zM391 272h375q155 0 267 111.5t112 265.5v340q0 154 -112 265.5t-267 111.5h-375v-1094z" />
<glyph unicode="E" horiz-adv-x="1359" d="M119 1573q0 29 19.5 47t49.5 18h990q20 0 33 -5t20 -10.5t10 -18.5t3.5 -20.5t0.5 -24.5v-113q0 -55 -13.5 -67.5t-68.5 -12.5h-768v-362h682q29 0 47.5 -19.5t18.5 -48.5v-139q0 -29 -18.5 -48.5t-47.5 -19.5h-682v-457h795q55 0 68.5 -12.5t13.5 -66.5v-111 q0 -21 -1.5 -31t-7 -24.5t-20.5 -20.5t-39 -6h-1016q-29 0 -47 18.5t-18 47.5z" />
<glyph unicode="F" horiz-adv-x="1269" d="M119 1573q0 28 19.5 46.5t45.5 18.5h951q30 0 45.5 -12.5t18.5 -27t3 -39.5v-113q0 -55 -13 -67.5t-69 -12.5h-727v-385h684q66 0 66 -66v-141q0 -65 -66 -65h-684v-627q0 -17 -0.5 -25t-3.5 -21t-10 -19.5t-20 -11.5t-33 -5h-140q-26 0 -44.5 19t-18.5 47z" />
<glyph unicode="G" horiz-adv-x="1564" d="M115 668v331q0 135 53 258.5t142.5 213.5t213.5 143t260 53q208 0 373.5 -121t253.5 -325q14 -33 -4 -57.5t-59 -24.5h-148q-39 0 -59 39l2 -2q-123 225 -359 225q-166 0 -284.5 -118t-118.5 -284v-331q0 -189 119 -308q119 -116 284 -116q123 0 224 56t153 163 q22 49 31 119q3 22 5.5 42t3.5 28.5t1 9.5h-352q-26 0 -46 20t-20 45v127q0 66 66 66h545q63 0 63 -66q0 -16 1 -39.5t1 -36.5q2 -31 2 -84q0 -30 -8 -106q-10 -99 -22 -144q-36 -118 -119 -225q-188 -238 -499 -238q-15 0 -30 1q-186 5 -337.5 89.5t-241.5 240.5t-90 356z " />
<glyph unicode="H" horiz-adv-x="1435" d="M121 1573q0 26 18.5 45.5t46.5 19.5h140q20 0 33 -5t20 -10.5t10 -18.5t3.5 -20.5t0.5 -24.5v-703l639 274v429q0 38 12.5 58.5t55.5 20.5h137q29 0 49.5 -20t20.5 -45v-1507q0 -25 -20.5 -45.5t-49.5 -20.5h-137q-43 0 -55.5 21t-12.5 59v749l-639 -270v-479 q0 -21 -1 -30.5t-6.5 -23.5t-20.5 -20t-39 -6h-140q-28 0 -44.5 20t-16.5 46z" />
<glyph unicode="I" d="M121 1573q0 26 18.5 45.5t46.5 19.5h140q28 0 47.5 -19.5t19.5 -45.5v-1507q0 -26 -19.5 -46t-47.5 -20h-140q-28 0 -44.5 20t-16.5 46z" />
<glyph unicode="J" horiz-adv-x="1394" d="M72 543v22q0 30 17 50t46 20h139q29 0 48.5 -20.5t19.5 -49.5v-22q0 -82 18 -125q26 -63 86 -104.5t127 -41.5h160q108 0 185 79t77 188v977q-2 19 -2 34q0 88 70 88h139q28 0 47 -19.5t19 -45.5v-1034q0 -109 -42.5 -208.5t-114 -172t-170.5 -115.5t-208 -43h-160 q-181 0 -321.5 117t-169.5 293q-10 59 -10 133z" />
<glyph unicode="K" horiz-adv-x="1431" d="M119 1573q0 65 67 65h138q67 0 67 -65v-572l692 641l4 -6q2 2 23 2h190q30 0 50 -18t20 -47q0 -28 -24 -49l-23 -27l-569 -534l606 -836l16 -23q18 -22 18 -42q0 -27 -32 -50q-18 -12 -39 -12h-172q-40 0 -61 37l2 -4l-541 745q-25 -24 -50.5 -48t-57 -53t-52.5 -48v-563 q0 -66 -67 -66h-138q-63 0 -63 66z" />
<glyph unicode="L" horiz-adv-x="1234" d="M121 1573q0 65 65 65h142q30 0 45 -12.5t17.5 -26.5t2.5 -40v-1287h680q56 0 68 -12t12 -67v-111q0 -19 -1.5 -30.5t-7.5 -25t-20 -20t-37 -6.5h-901q-61 0 -61 66z" />
<glyph unicode="M" horiz-adv-x="1847" d="M121 1554q0 84 119 84h73q33 0 51 -6.5t35 -29.5l523 -656l524 662q24 30 80 30h80h27.5t28 -4.5t29.5 -12.5t18 -25.5t9 -43.5v-1493q0 -21 -5 -34t-16.5 -18t-21 -6t-28.5 -1h-121q-54 0 -68 14t-14 68v1075q-281 -359 -424 -528l2 4q-13 -22 -24 -26.5t-37 -4.5h-80 q-28 0 -37.5 5.5t-28.5 27.5l-420 522v-1075q0 -54 -14 -68t-68 -14h-120h-15h-12q-10 1 -21 6t-15.5 17t-4.5 32z" />
<glyph unicode="N" horiz-adv-x="1499" d="M121 1573q0 26 18.5 45.5t46.5 19.5h152q38 0 55 -32v2l703 -1057v1022q0 26 19.5 45.5t47.5 19.5h140q28 0 47.5 -19.5t19.5 -45.5v-1507q0 -26 -19.5 -46t-47.5 -20h-140q-38 0 -57 31q-137 205 -711 1054v-1019q0 -26 -19.5 -46t-47.5 -20h-142q-28 0 -44.5 20 t-16.5 46z" />
<glyph unicode="O" horiz-adv-x="1628" d="M94 662v321q0 139 57.5 264.5t154 216t229.5 144t278 53.5q146 0 278 -53.5t227 -144t151.5 -216t56.5 -264.5v-321q0 -139 -57 -265t-153 -217t-228 -144.5t-277 -53.5t-277.5 53.5t-229 144.5t-153.5 217t-57 265zM371 662q0 -172 129.5 -295t310.5 -123q180 0 309 123 t129 295v321q0 172 -129 295t-309 123q-181 0 -310.5 -123.5t-129.5 -294.5v-321z" />
<glyph unicode="P" horiz-adv-x="1325" d="M119 1573q0 26 19.5 45.5t47.5 19.5h688q81 0 147.5 -23t111 -61.5t74.5 -89.5q29 -52 41 -109q8 -41 9 -84q1 -17 -1 -33q-4 -60 -25 -115.5t-57.5 -104.5t-86.5 -82q-131 -85 -159 -102l-537 -297v-457q0 -19 -1.5 -30.5t-7 -24.5t-19.5 -19t-37 -6h-140 q-28 0 -45.5 20t-17.5 46zM391 844q223 118 332 184q47 26 113.5 71.5t81.5 67.5q29 45 29 93q0 19 -5 38q-15 68 -82 68h-469v-522z" />
<glyph unicode="Q" horiz-adv-x="1652" d="M94 662v323q0 139 57 267t152.5 221t228 148.5t277.5 55.5q190 0 355 -93.5t262.5 -253.5t97.5 -345v-323q0 -182 -105 -355l6 -6q5 0 64 -39q59 -41 59 -76q-1 -12 -7.5 -27.5t-13.5 -26l-21 -31.5t-19 -29q-30 -52 -68 -58q-5 -1 -10 -1q-35 0 -96 38l-84 51 q-175 -125 -420 -125q-145 0 -277 54t-228 146t-153 218.5t-57 266.5zM371 662q0 -109 55.5 -206.5t153.5 -157.5t213 -60q118 0 172 34q-19 12 -54 35q-41 29 -41 67q0 9 2 19q2 2 2 4q50 69 60 88q12 13 16 23q25 31 58 31q17 0 82 -39l96 -56q61 98 61 218v323 q0 172 -130 297t-308 125t-308 -125t-130 -297v-323z" />
<glyph unicode="R" horiz-adv-x="1431" d="M119 1573q0 26 19.5 45.5t47.5 19.5h729q138 0 242.5 -104.5t104.5 -243.5q0 -109 -51.5 -183.5t-149.5 -141.5q112 -300 125 -336q134 -366 205 -545q8 -19 8 -34q0 -17 -10 -28q-19 -22 -62 -22h-156q-29 0 -42.5 13t-22.5 38l-295 780q-53 -28 -192 -102t-222 -117 v-532q0 -19 -1.5 -30.5t-7 -24.5t-19.5 -19t-37 -6h-146q-28 0 -45.5 20t-17.5 46zM397 920q101 50 158 79t164.5 85.5t170 97.5t77.5 65v-2q12 18 12 43q0 33 -22.5 55.5t-57.5 22.5h-502v-446z" />
<glyph unicode="S" horiz-adv-x="1368" d="M96 508q0 19 1.5 30.5t7.5 24.5t20 19t37 6h139q49 0 61 -49q7 -24 7 -66q0 -1 4 -55q17 -75 79.5 -124.5t141.5 -49.5h156q94 0 164 48t83 128q4 28 4 41q1 12 1 24q0 68 -31 95q-16 14 -39.5 25.5t-61 22.5t-64 17.5t-82.5 19.5t-83 19q-50 11 -88 20.5t-86 24 t-84 28.5t-76.5 34t-70 41.5t-57.5 49.5t-45 60t-27.5 71.5t-10.5 84.5v28q0 91 13 142l-3 -2q32 169 172 281t316 112h156q183 0 331 -119q70 -56 109 -156q35 -91 35 -195v-22q-1 -21 -2.5 -30.5t-7.5 -23.5t-19.5 -20t-36.5 -6h-135q-28 0 -46 20t-20 46 q-4 127 -55.5 183.5t-152.5 56.5h-156q-78 0 -142 -51.5t-81 -129.5v2q-5 -29 -6.5 -44.5t7 -47.5t31.5 -55q40 -40 89 -53l235 -66q241 -69 262 -76q78 -26 144 -69q66 -45 104.5 -120t38.5 -175q0 -118 -43.5 -233.5t-112.5 -176.5q-130 -116 -370 -116h-156 q-132 0 -245.5 62t-180.5 169q-44 64 -57 133q-15 79 -15 166v-4z" />
<glyph unicode="T" horiz-adv-x="1310" d="M41 1454v105q0 26 2.5 40t17.5 26.5t45 12.5h1092q43 0 55.5 -20.5t12.5 -58.5v-105q0 -51 -13.5 -65.5t-66.5 -14.5h-393v-1294q0 -19 -1.5 -30.5t-7.5 -24.5t-20 -19t-37 -6h-141q-23 0 -37 6t-20 19t-7.5 24.5t-1.5 30.5v1294h-397q-53 0 -67.5 15t-14.5 65z" />
<glyph unicode="U" horiz-adv-x="1433" d="M121 494v1079q0 65 65 65h138q30 0 45 -12.5t17.5 -26.5t2.5 -40v-1065q0 -93 68 -159.5t161 -66.5h158q106 0 182 74t76 178v1039q0 38 12.5 58.5t55.5 20.5h135q68 0 68 -65v-1053q0 -141 -72 -261t-194 -189.5t-263 -69.5h-158q-204 0 -350.5 143.5t-146.5 350.5z" />
<glyph unicode="V" horiz-adv-x="1458" d="M29 1573q0 65 67 65h160q19 0 33 -9t18.5 -16.5t14.5 -27.5l403 -1194l399 1194l-2 -12q0 3 2 5t2 3q18 57 66 57h162q25 0 45 -20t20 -45t-73 -232l-220 -608l-211 -583l-34 -97q-12 -29 -25 -41t-41 -12h-180q-32 0 -45.5 13t-20.5 38l-141 408q-23 67 -90.5 262 t-100.5 288t-90 246t-110 283q-8 14 -8 35z" />
<glyph unicode="W" horiz-adv-x="1976" d="M39 1569q0 24 6.5 39t21 20.5t25 6.5t31.5 1h115q21 0 31.5 -1.5t23.5 -13.5t20 -36l267 -1091q212 817 280 1089l-2 -6q9 59 68 59h98q54 0 66 -53l280 -1089l268 1091q7 24 19.5 36t23 13.5t31.5 1.5h115q21 0 39 -4q18 -6 34 -22q12 -12 12 -30q0 -6 -1 -13l-6 -33 q-54 -286 -197 -831.5t-170 -659.5q-1 -3 -4 -11.5t-4.5 -11t-6 -8t-10 -7t-15.5 -3.5t-23 -2h-201q-32 0 -45.5 11.5t-18.5 33.5q-27 100 -73.5 288t-65.5 259l-98 385l-234 -930q-7 -19 -10 -25.5t-16 -14t-35 -7.5h-203q-11 0 -19 0.5t-14 3.5t-9.5 4.5t-7.5 8t-5 8 t-5 11.5t-5 13l-367 1485q-4 16 -4 35z" />
<glyph unicode="X" horiz-adv-x="1372" d="M37 66q0 13 80 149q38 67 176 279q146 225 178 270l55 80l-450 692q-10 30 -10 37q0 26 19.5 45.5t47.5 19.5h160q15 0 28 -7.5t17.5 -12.5t15.5 -19v3l338 -543q214 364 330 551q19 28 57 28h166q25 0 45.5 -20t20.5 -45q0 -9 -25 -51q-18 -36 -59 -101l-375 -577 l485 -746l4 -24q0 -33 -16 -53.5t-47 -20.5h-172q-37 0 -59 39v-2l-363 579l-367 -579l2 6q-15 -43 -61 -43h-154q-28 0 -47.5 20t-19.5 46z" />
<glyph unicode="Y" horiz-adv-x="1425" d="M25 1575q0 63 63 63h182q39 0 60 -30l383 -568q326 502 387 576l-4 -4q20 26 55 26h184q66 0 66 -65q0 -20 -25 -55q0 -1 -1 -2.5t-1 -2.5l-2 -2l-526 -751v-680q0 -20 -1.5 -30.5t-7 -24t-20.5 -19.5t-39 -6h-139q-23 0 -37 6t-20 19t-7.5 24.5t-1.5 30.5v684l-540 772 q-8 14 -8 39z" />
<glyph unicode="Z" horiz-adv-x="1339" d="M41 82v88q0 26 18 51l838 1141h-731q-54 0 -68 14t-14 68v115q0 22 1 31t7 23t21 19.5t41 5.5h1042q28 0 47 -19.5t19 -45.5v-129q0 -28 -17 -45l-813 -1123h776q54 0 67 -13.5t13 -67.5v-113q0 -25 -3 -40.5t-19 -28.5t-45 -13h-1112q-30 0 -45.5 13t-19 28.5t-3.5 40.5 z" />
<glyph unicode="[" horiz-adv-x="669" d="M49 1800v6v4q0 23 16 39.5t39 16.5h5h6h139h6h250q23 0 39 -16.5t16 -39.5v-161q0 -23 -16 -39.5t-39 -16.5h-188v-1663h188q23 0 39 -16t16 -39v-162q0 -23 -16 -39t-39 -16h-250h-6h-135h-6h-4q-23 0 -39.5 16t-16.5 39v4v7z" />
<glyph unicode="\" horiz-adv-x="1116" d="M70 1765q-11 25 0 45.5t39 20.5h159q54 0 74 -45l696 -1720q12 -25 1.5 -45.5t-38.5 -20.5h-139q-56 0 -76 45z" />
<glyph unicode="]" horiz-adv-x="669" d="M92 1649v161q0 23 16 39.5t39 16.5h252h7h139h6h2q46 0 55 -49q2 -2 2 -17v-1917v-8v-162q0 -23 -16 -39t-39 -16h-149h-7h-245q-23 0 -39.5 16t-16.5 39v162q0 23 15.5 39t38.5 16h186v1663h-191q-23 0 -39 16.5t-16 39.5z" />
<glyph unicode="^" horiz-adv-x="1099" d="M28.5 1108q0.5 23 14.5 41l358 356l9 11l104 102l4 4l10 6l2 2q5 0 7 2h4q4 2 20 2q21 -4 33 -16l106 -105l7 -10l342 -338q17 -17 17 -41t-17 -41l-105 -104q-17 -17 -40 -17t-40 17l-307 307l-328 -325q-17 -17 -41 -17t-41 17l-102 106q-17 18 -16.5 41z" />
<glyph unicode="_" horiz-adv-x="1185" d="M53 66v129q0 26 19 45.5t47 19.5h938q28 0 47.5 -19.5t19.5 -45.5v-129q0 -26 -19.5 -46t-47.5 -20h-938q-28 0 -47 20t-19 46z" />
<glyph unicode="`" horiz-adv-x="577" d="M67.5 1617q13.5 17 51.5 17h145q77 0 113 -51l98 -180q19 -29 6.5 -47.5t-55.5 -18.5h-102q-58 0 -111 56l-141 178q-18 29 -4.5 46z" />
<glyph unicode="a" horiz-adv-x="1411" d="M25 66q0 4 119 355t249 728.5t154 435.5q9 20 14.5 28.5t18.5 16.5t32 8h181q9 0 15.5 -1t12.5 -5t9.5 -6t8 -9t6 -9.5t6 -11.5l5.5 -11l524 -1495q2 -14 2 -24q0 -66 -65 -66h-148q-20 0 -33 8t-18 16t-14 29l-186 539l-504 -223l-113 -316q-10 -23 -13.5 -30t-17.5 -15 t-37 -8h-141q-26 0 -46.5 19t-20.5 47zM537 739l282 125q-43 113 -47 129q-3 12 -10 32t-10 32q-5 13 -13.5 39.5t-17.5 53t-19 54.5z" />
<glyph unicode="b" horiz-adv-x="1441" d="M119 1573q0 29 19 47t48 18h672q144 0 244 -102.5t100 -245.5q0 -106 -37 -170q-38 -66 -164 -133q167 -31 242.5 -119t76.5 -254v-170q0 -184 -130.5 -314t-315.5 -130h-688q-28 0 -45.5 20t-17.5 46zM391 272h483q71 0 123 52l21 24q24 29 30.5 46t6.5 50q0 32 -0.5 59 t-1 42.5t-0.5 17.5q0 102 -42 148.5t-106 46.5h-262l-252 -137v-349zM391 915q167 87 332.5 184.5t191.5 137.5q13 19 13 53q0 31 -20 53.5t-50 22.5h-467v-451z" />
<glyph unicode="c" horiz-adv-x="1546" d="M115 641v356q0 181 89 334.5t242.5 243.5t333.5 90q247 0 428.5 -154t231.5 -397q0 -1 -1 -10t-1 -10q-18 -60 -64 -60h-137q-24 0 -37.5 11t-25.5 34q-3 9 -12.5 35t-13.5 36.5t-12 29t-16 32t-18 27.5q-56 76 -140 118t-182 42q-164 0 -281.5 -118t-117.5 -284v-356 q0 -166 117.5 -283.5t281.5 -117.5q98 0 182 42.5t144 120.5q47 63 74 177l-2 -5q9 56 63 56h137q28 0 47 -20t19 -46q0 -52 -27 -127q-70 -198 -249.5 -329.5t-387.5 -131.5q-181 0 -334 89t-242 242t-89 333z" />
<glyph unicode="d" horiz-adv-x="1527" d="M117 1573q0 25 20 45t49 20h580q176 0 326 -87.5t237.5 -237t87.5 -324.5v-340q0 -175 -87.5 -324.5t-237.5 -237t-326 -87.5h-580q-29 0 -47 18.5t-18 47.5zM391 272h375q155 0 267 111.5t112 265.5v340q0 154 -112 265.5t-267 111.5h-375v-1094z" />
<glyph unicode="e" horiz-adv-x="1359" d="M119 1573q0 29 19.5 47t49.5 18h990q20 0 33 -5t20 -10.5t10 -18.5t3.5 -20.5t0.5 -24.5v-113q0 -55 -13.5 -67.5t-68.5 -12.5h-768v-362h682q29 0 47.5 -19.5t18.5 -48.5v-139q0 -29 -18.5 -48.5t-47.5 -19.5h-682v-457h795q55 0 68.5 -12.5t13.5 -66.5v-111 q0 -21 -1.5 -31t-7 -24.5t-20.5 -20.5t-39 -6h-1016q-29 0 -47 18.5t-18 47.5z" />
<glyph unicode="f" horiz-adv-x="1269" d="M119 1573q0 28 19.5 46.5t45.5 18.5h951q30 0 45.5 -12.5t18.5 -27t3 -39.5v-113q0 -55 -13 -67.5t-69 -12.5h-727v-385h684q66 0 66 -66v-141q0 -65 -66 -65h-684v-627q0 -17 -0.5 -25t-3.5 -21t-10 -19.5t-20 -11.5t-33 -5h-140q-26 0 -44.5 19t-18.5 47z" />
<glyph unicode="g" horiz-adv-x="1564" d="M115 668v331q0 135 53 258.5t142.5 213.5t213.5 143t260 53q208 0 373.5 -121t253.5 -325q14 -33 -4 -57.5t-59 -24.5h-148q-39 0 -59 39l2 -2q-123 225 -359 225q-166 0 -284.5 -118t-118.5 -284v-331q0 -189 119 -308q119 -116 284 -116q123 0 224 56t153 163 q22 49 31 119q3 22 5.5 42t3.5 28.5t1 9.5h-352q-26 0 -46 20t-20 45v127q0 66 66 66h545q63 0 63 -66q0 -16 1 -39.5t1 -36.5q2 -31 2 -84q0 -30 -8 -106q-10 -99 -22 -144q-36 -118 -119 -225q-188 -238 -499 -238q-15 0 -30 1q-186 5 -337.5 89.5t-241.5 240.5t-90 356z " />
<glyph unicode="h" horiz-adv-x="1435" d="M121 1573q0 26 18.5 45.5t46.5 19.5h140q20 0 33 -5t20 -10.5t10 -18.5t3.5 -20.5t0.5 -24.5v-703l639 274v429q0 38 12.5 58.5t55.5 20.5h137q29 0 49.5 -20t20.5 -45v-1507q0 -25 -20.5 -45.5t-49.5 -20.5h-137q-43 0 -55.5 21t-12.5 59v749l-639 -270v-479 q0 -21 -1 -30.5t-6.5 -23.5t-20.5 -20t-39 -6h-140q-28 0 -44.5 20t-16.5 46z" />
<glyph unicode="i" d="M121 1573q0 26 18.5 45.5t46.5 19.5h140q28 0 47.5 -19.5t19.5 -45.5v-1507q0 -26 -19.5 -46t-47.5 -20h-140q-28 0 -44.5 20t-16.5 46z" />
<glyph unicode="j" horiz-adv-x="1394" d="M72 543v22q0 30 17 50t46 20h139q29 0 48.5 -20.5t19.5 -49.5v-22q0 -82 18 -125q26 -63 86 -104.5t127 -41.5h160q108 0 185 79t77 188v977q-2 19 -2 34q0 88 70 88h139q28 0 47 -19.5t19 -45.5v-1034q0 -109 -42.5 -208.5t-114 -172t-170.5 -115.5t-208 -43h-160 q-181 0 -321.5 117t-169.5 293q-10 59 -10 133z" />
<glyph unicode="k" horiz-adv-x="1431" d="M119 1573q0 65 67 65h138q67 0 67 -65v-572l692 641l4 -6q2 2 23 2h190q30 0 50 -18t20 -47q0 -28 -24 -49l-23 -27l-569 -534l606 -836l16 -23q18 -22 18 -42q0 -27 -32 -50q-18 -12 -39 -12h-172q-40 0 -61 37l2 -4l-541 745q-25 -24 -50.5 -48t-57 -53t-52.5 -48v-563 q0 -66 -67 -66h-138q-63 0 -63 66z" />
<glyph unicode="l" horiz-adv-x="1234" d="M121 1573q0 65 65 65h142q30 0 45 -12.5t17.5 -26.5t2.5 -40v-1287h680q56 0 68 -12t12 -67v-111q0 -19 -1.5 -30.5t-7.5 -25t-20 -20t-37 -6.5h-901q-61 0 -61 66z" />
<glyph unicode="m" horiz-adv-x="1847" d="M121 1554q0 84 119 84h73q33 0 51 -6.5t35 -29.5l523 -656l524 662q24 30 80 30h80h27.5t28 -4.5t29.5 -12.5t18 -25.5t9 -43.5v-1493q0 -21 -5 -34t-16.5 -18t-21 -6t-28.5 -1h-121q-54 0 -68 14t-14 68v1075q-281 -359 -424 -528l2 4q-13 -22 -24 -26.5t-37 -4.5h-80 q-28 0 -37.5 5.5t-28.5 27.5l-420 522v-1075q0 -54 -14 -68t-68 -14h-120h-15h-12q-10 1 -21 6t-15.5 17t-4.5 32z" />
<glyph unicode="n" horiz-adv-x="1499" d="M121 1573q0 26 18.5 45.5t46.5 19.5h152q38 0 55 -32v2l703 -1057v1022q0 26 19.5 45.5t47.5 19.5h140q28 0 47.5 -19.5t19.5 -45.5v-1507q0 -26 -19.5 -46t-47.5 -20h-140q-38 0 -57 31q-137 205 -711 1054v-1019q0 -26 -19.5 -46t-47.5 -20h-142q-28 0 -44.5 20 t-16.5 46z" />
<glyph unicode="o" horiz-adv-x="1628" d="M94 662v321q0 139 57.5 264.5t154 216t229.5 144t278 53.5q146 0 278 -53.5t227 -144t151.5 -216t56.5 -264.5v-321q0 -139 -57 -265t-153 -217t-228 -144.5t-277 -53.5t-277.5 53.5t-229 144.5t-153.5 217t-57 265zM371 662q0 -172 129.5 -295t310.5 -123q180 0 309 123 t129 295v321q0 172 -129 295t-309 123q-181 0 -310.5 -123.5t-129.5 -294.5v-321z" />
<glyph unicode="p" horiz-adv-x="1325" d="M119 1573q0 26 19.5 45.5t47.5 19.5h688q81 0 147.5 -23t111 -61.5t74.5 -90t41 -108.5q9 -41 9 -84q0 -16 -1 -33q-5 -61 -25.5 -116t-57 -104t-86.5 -82q-131 -85 -159 -102l-537 -297v-457q0 -19 -1.5 -30.5t-7 -24.5t-19.5 -19t-37 -6h-140q-28 0 -45.5 20t-17.5 46z M391 844q223 118 332 184q47 26 113.5 71.5t81.5 67.5q29 45 29 93q0 19 -5 38q-15 68 -82 68h-469v-522z" />
<glyph unicode="q" horiz-adv-x="1652" d="M94 662v323q0 139 57 267t152.5 221t228 148.5t277.5 55.5q190 0 355 -93.5t262.5 -253.5t97.5 -345v-323q0 -182 -105 -355l6 -6q5 0 64 -39q59 -41 59 -76q-1 -12 -7.5 -27.5t-13.5 -26l-21 -31.5t-19 -29q-30 -52 -68 -58q-5 -1 -10 -1q-35 0 -96 38l-84 51 q-175 -125 -420 -125q-145 0 -277 54t-228 146t-153 218.5t-57 266.5zM371 662q0 -109 55.5 -206.5t153.5 -157.5t213 -60q118 0 172 34q-19 12 -54 35q-41 29 -41 67q0 9 2 19q2 2 2 4q50 69 60 88q12 13 16 23q25 31 58 31q17 0 82 -39l96 -56q61 98 61 218v323 q0 172 -130 297t-308 125t-308 -125t-130 -297v-323z" />
<glyph unicode="r" horiz-adv-x="1431" d="M119 1573q0 26 19.5 45.5t47.5 19.5h729q138 0 242.5 -104.5t104.5 -243.5q0 -109 -51.5 -183.5t-149.5 -141.5q112 -300 125 -336q134 -366 205 -545q8 -19 8 -34q0 -17 -10 -28q-19 -22 -62 -22h-156q-29 0 -42.5 13t-22.5 38l-295 780q-53 -28 -192 -102t-222 -117 v-532q0 -19 -1.5 -30.5t-7 -24.5t-19.5 -19t-37 -6h-146q-28 0 -45.5 20t-17.5 46zM397 920q101 50 158 79t164.5 85.5t170 97.5t77.5 65v-2q12 18 12 43q0 33 -22.5 55.5t-57.5 22.5h-502v-446z" />
<glyph unicode="s" horiz-adv-x="1368" d="M96 508q0 19 1.5 30.5t7.5 24.5t20 19t37 6h139q49 0 61 -49q7 -24 7 -66q0 -1 4 -55q17 -75 79.5 -124.5t141.5 -49.5h156q94 0 164 48t83 128q4 28 4 41q1 12 1 24q0 68 -31 95q-16 14 -39.5 25.5t-61 22.5t-64 17.5t-82.5 19.5t-83 19q-50 11 -88 20.5t-86 24 t-84 28.5t-76.5 34t-70 41.5t-57.5 49.5t-45 60t-27.5 71.5t-10.5 84.5v28q0 91 13 142l-3 -2q32 169 172 281t316 112h156q183 0 331 -119q70 -56 109 -156q35 -91 35 -195v-22q-1 -21 -2.5 -30.5t-7.5 -23.5t-19.5 -20t-36.5 -6h-135q-28 0 -46 20t-20 46 q-4 127 -55.5 183.5t-152.5 56.5h-156q-78 0 -142 -51.5t-81 -129.5v2q-5 -29 -6.5 -44.5t7 -47.5t31.5 -55q40 -40 89 -53l235 -66q241 -69 262 -76q78 -26 144 -69q66 -45 104.5 -120t38.5 -175q0 -118 -43.5 -233.5t-112.5 -176.5q-130 -116 -370 -116h-156 q-132 0 -245.5 62t-180.5 169q-44 64 -57 133q-15 79 -15 166v-4z" />
<glyph unicode="t" horiz-adv-x="1310" d="M41 1454v105q0 26 2.5 40t17.5 26.5t45 12.5h1092q43 0 55.5 -20.5t12.5 -58.5v-105q0 -51 -13.5 -65.5t-66.5 -14.5h-393v-1294q0 -19 -1.5 -30.5t-7.5 -24.5t-20 -19t-37 -6h-141q-23 0 -37 6t-20 19t-7.5 24.5t-1.5 30.5v1294h-397q-53 0 -67.5 15t-14.5 65z" />
<glyph unicode="u" horiz-adv-x="1433" d="M121 494v1079q0 65 65 65h138q30 0 45 -12.5t17.5 -26.5t2.5 -40v-1065q0 -93 68 -159.5t161 -66.5h158q106 0 182 74t76 178v1039q0 38 12.5 58.5t55.5 20.5h135q68 0 68 -65v-1053q0 -141 -72 -261t-194 -189.5t-263 -69.5h-158q-204 0 -350.5 143.5t-146.5 350.5z" />
<glyph unicode="v" horiz-adv-x="1458" d="M29 1573q0 65 67 65h160q19 0 33 -9t18.5 -16.5t14.5 -27.5l403 -1194l399 1194l-2 -12q0 3 2 5t2 3q18 57 66 57h162q25 0 45 -20t20 -45t-73 -232l-220 -608l-211 -583l-34 -97q-12 -29 -25 -41t-41 -12h-180q-32 0 -45.5 13t-20.5 38l-141 408q-23 67 -90.5 262 t-100.5 288t-90 246t-110 283q-8 14 -8 35z" />
<glyph unicode="w" horiz-adv-x="1976" d="M39 1569q0 24 6.5 39t21 20.5t25 6.5t31.5 1h115q21 0 31.5 -1.5t23.5 -13.5t20 -36l267 -1091q212 817 280 1089l-2 -6q9 59 68 59h98q54 0 66 -53l280 -1089l268 1091q7 24 19.5 36t23 13.5t31.5 1.5h115q21 0 39 -4q18 -6 34 -22q12 -12 12 -30q0 -6 -1 -13l-6 -33 q-54 -286 -197 -831.5t-170 -659.5q-1 -3 -4 -11.5t-4.5 -11t-6 -8t-10 -7t-15.5 -3.5t-23 -2h-201q-32 0 -45.5 11.5t-18.5 33.5q-27 100 -73.5 288t-65.5 259l-98 385l-234 -930q-7 -19 -10 -25.5t-16 -14t-35 -7.5h-203q-11 0 -19 0.5t-14 3.5t-9.5 4.5t-7.5 8t-5 8 t-5 11.5t-5 13l-367 1485q-4 16 -4 35z" />
<glyph unicode="x" horiz-adv-x="1372" d="M37 66q0 13 80 149q38 67 176 279q146 225 178 270l55 80l-450 692q-10 30 -10 37q0 26 19.5 45.5t47.5 19.5h160q15 0 28 -7.5t17.5 -12.5t15.5 -19v3l338 -543q214 364 330 551q19 28 57 28h166q25 0 45.5 -20t20.5 -45q0 -9 -25 -51q-18 -36 -59 -101l-375 -577 l485 -746l4 -24q0 -33 -16 -53.5t-47 -20.5h-172q-37 0 -59 39v-2l-363 579l-367 -579l2 6q-15 -43 -61 -43h-154q-28 0 -47.5 20t-19.5 46z" />
<glyph unicode="y" horiz-adv-x="1425" d="M25 1575q0 63 63 63h182q39 0 60 -30l383 -568q326 502 387 576l-4 -4q20 26 55 26h184q66 0 66 -65q0 -20 -25 -55q0 -1 -1 -2.5t-1 -2.5l-2 -2l-526 -751v-680q0 -20 -1.5 -30.5t-7 -24t-20.5 -19.5t-39 -6h-139q-23 0 -37 6t-20 19t-7.5 24.5t-1.5 30.5v684l-540 772 q-8 14 -8 39z" />
<glyph unicode="z" horiz-adv-x="1339" d="M41 82v88q0 26 18 51l838 1141h-731q-54 0 -68 14t-14 68v115q0 22 1 31t7 23t21 19.5t41 5.5h1042q28 0 47 -19.5t19 -45.5v-129q0 -28 -17 -45l-813 -1123h776q54 0 67 -13.5t13 -67.5v-113q0 -25 -3 -40.5t-19 -28.5t-45 -13h-1112q-30 0 -45.5 13t-19 28.5t-3.5 40.5 z" />
<glyph unicode="{" horiz-adv-x="749" d="M57 670v141q0 55 54 55h57q43 0 65 25q11 11 19 54t8 85v361q0 81 10 140.5t43 119.5q9 16 17.5 30t20.5 29.5t19.5 25t24.5 27t23.5 24.5t29 29t29.5 29l12 13q39 39 78 0l117 -115q17 -17 17 -38t-17 -38l-33 -31l-47 -49q-22 -25 -35 -55q-25 -52 -28 -156l-9 -368 q-3 -192 -92 -269q88 -70 92 -245l9 -371q3 -104 26 -154q5 -5 8 -16l7 -12q23 -44 57 -62l39 -18q45 -39 6 -78l-117 -115q-35 -43 -78 0l-22 23l-84 76q-46 37 -70 86q-33 60 -43 118t-10 138v362q0 101 -22 117q-26 26 -70 26h-57q-54 0 -54 56z" />
<glyph unicode="|" d="M121 1798q0 26 18.5 46t46.5 20h140q28 0 47.5 -20t19.5 -46v-2077q0 -26 -19.5 -45.5t-47.5 -19.5h-136q-28 0 -46.5 19.5t-18.5 45.5z" />
<glyph unicode="}" horiz-adv-x="749" d="M42 1705q0 21 17 38l117 115q39 39 78 0l12 -13q7 -7 29 -28.5t28.5 -28.5t23.5 -25t24.5 -27.5t20 -25t21 -29.5t17.5 -30q53 -99 53 -260v-361q0 -42 7.5 -85.5t17.5 -53.5q25 -25 67 -25h56q53 0 53 -55v-141q0 -56 -53 -56h-56q-43 0 -69 -26q-23 -16 -23 -117v-362 q0 -80 -10 -138t-43 -118q-22 -38 -70 -86l-86 -76l-20 -23q-15 -19 -35.5 -20.5t-38.5 20.5l-117 115q-38 38 7 78l36 18q22 10 33.5 23.5t22.5 38.5q3 3 6 12q3 11 8 16q24 53 27 154l6 371q4 175 94 245q-91 79 -94 269l-6 368q-3 102 -29 156q-11 25 -37 55l-47 49 l-31 31q-17 17 -17 38z" />
<glyph unicode="~" horiz-adv-x="897" d="M45 705q-18 15 0 59l45 110q11 24 34 32t54 -3q69 -25 124.5 -22t120.5 14t120.5 22.5t125.5 2t136 -45.5q18 -9 37 -28q18 -18 -2 -58l-52 -110q-12 -27 -40.5 -31.5t-47.5 8.5q-45 31 -105.5 35t-123.5 -8t-127.5 -24.5t-136 -10.5t-131.5 29q-23 10 -31 29z" />
<glyph unicode="&#xa1;" d="M119 541q0 26 19.5 45.5t47.5 19.5h140q28 0 46.5 -19.5t18.5 -45.5v-1071q0 -26 -18.5 -46t-46.5 -20h-140q-28 0 -45.5 20t-17.5 46zM119 821v152q0 26 19.5 45.5t47.5 19.5h140q28 0 46.5 -19.5t18.5 -45.5v-152q0 -26 -18.5 -45.5t-46.5 -19.5h-140q-28 0 -47.5 19.5 t-19.5 45.5z" />
<glyph unicode="&#xa2;" horiz-adv-x="1546" d="M115 702v172q0 234 147 418t371 234v73q0 26 18.5 46t46.5 20h140q28 0 47.5 -20t19.5 -46v-69q204 -36 347 -182t188 -357q0 -1 -1 -10t-1 -10q-18 -60 -64 -60h-137q-24 0 -37.5 11t-25.5 34q-3 9 -12.5 35t-13.5 36.5t-12 29t-16 32t-18 27.5q-56 76 -140 118t-182 42 q-164 0 -281.5 -118t-117.5 -284v-172q0 -166 117.5 -283.5t281.5 -117.5q97 0 181 42.5t145 121.5q48 64 74 176l-2 -4q9 55 63 55h137q28 0 47 -19.5t19 -45.5q0 -52 -27 -127q-57 -166 -198.5 -291t-313.5 -162v-78q0 -26 -19.5 -45.5t-47.5 -19.5h-140q-28 0 -46.5 19.5 t-18.5 45.5v82q-224 50 -371 232.5t-147 418.5z" />
<glyph unicode="&#xa3;" horiz-adv-x="1607" d="M41 633v129q0 26 18.5 45.5t46.5 19.5h125l2 170q3 181 91.5 334.5t241 243.5t333.5 90q247 0 428.5 -154t231.5 -397q0 -1 -1.5 -10t-1.5 -10q-18 -60 -63 -60h-137q-41 0 -64 45q-4 12 -12.5 35.5t-13 35.5t-12 29.5t-15.5 31.5t-18 28q-56 76 -140 118t-182 42 q-164 0 -281.5 -118t-117.5 -284v-170h432q28 0 47.5 -19.5t19.5 -45.5v-129q0 -26 -19.5 -46t-47.5 -20h-432v-424q81 9 233 41.5t264 55.5t231 22.5t181 -41.5q27 -20 37 -33q10 -14 9.5 -28t-11.5 -41l-51 -131q-13 -33 -40.5 -39.5t-45.5 12.5q-38 31 -123.5 32 t-187.5 -19t-221 -45t-224.5 -46.5t-199 -23t-144.5 25.5q-20 10 -29 35q-14 14 -2 74l45 129q0 1 1 4t1 4l4 436h-121q-28 0 -46.5 20t-18.5 46z" />
<glyph unicode="&#xa5;" horiz-adv-x="1425" d="M25 1575q0 63 63 63h182q39 0 60 -30l383 -568q326 502 387 576l-4 -4q20 26 55 26h184q66 0 66 -65q0 -20 -25 -55q0 -1 -1 -2.5t-1 -2.5l-2 -2l-422 -602h88q28 0 48 -19.5t20 -45.5v-129q0 -26 -20 -46t-48 -20h-192v-129h192q28 0 48 -20t20 -45v-129q0 -26 -20 -46 t-48 -20h-192v-180q0 -20 -1.5 -30.5t-7 -24t-20.5 -19.5t-39 -6h-139q-23 0 -37 6t-20 19t-7.5 24.5t-1.5 30.5v180h-196q-28 0 -47 20t-19 46v129q0 26 19 45.5t47 19.5h196v129h-196q-28 0 -47 20t-19 46v129q0 26 19 45.5t47 19.5h94l-438 627q-8 14 -8 39z" />
<glyph unicode="&#xa6;" d="M121 590q0 26 18.5 45.5t46.5 19.5h140q28 0 47.5 -19.5t19.5 -45.5v-869q0 -26 -19.5 -45.5t-47.5 -19.5h-136q-28 0 -46.5 19.5t-18.5 45.5zM121 926v872q0 26 18.5 46t46.5 20h140q28 0 47.5 -20t19.5 -46v-872q0 -26 -19.5 -46t-47.5 -20h-140q-28 0 -46.5 20 t-18.5 46z" />
<glyph unicode="&#xa8;" horiz-adv-x="931" d="M94 1446v143q0 26 18 45t46 19h133q26 0 44.5 -19.5t18.5 -44.5v-143q0 -25 -18.5 -44.5t-44.5 -19.5h-133q-28 0 -46 19t-18 45zM561 1446v143q0 25 18 44.5t44 19.5h133q28 0 46.5 -19t18.5 -45v-143q0 -26 -18.5 -45t-46.5 -19h-133q-26 0 -44 19.5t-18 44.5z" />
<glyph unicode="&#xa9;" horiz-adv-x="1507" d="M41 799q0 157 54 293t148 232.5t225.5 152t281.5 55.5q149 0 281.5 -55.5t228 -151.5t151 -233t55.5 -293t-55.5 -293t-151 -233t-228 -151.5t-281.5 -55.5t-280.5 55.5t-225.5 151.5t-148.5 233t-54.5 293zM242 799q0 -235 143.5 -386t364.5 -151t368.5 152t147.5 385 t-147.5 384.5t-368.5 151.5q-222 0 -365 -151t-143 -385zM418 709v178q0 137 98 235.5t234 98.5q126 0 215 -76t114 -199v-10q-1 -2 -3 -7l-3 -7.5t-3.5 -6.5t-5.5 -5.5t-7 -3t-10 -1.5h-68q-20 0 -33 23q-16 53 -35 80q-60 79 -161 79q-82 0 -140.5 -58.5t-58.5 -141.5 v-178q0 -80 59 -140.5t140 -60.5q97 0 163 82q23 31 37 88l-2 -2q6 29 33 29h68q16 0 24 -9.5t8 -23.5q0 -18 -12 -64q-37 -100 -126.5 -165.5t-192.5 -65.5q-135 0 -233.5 98.5t-98.5 233.5z" />
<glyph unicode="&#xaa;" horiz-adv-x="890" />
<glyph unicode="&#xab;" horiz-adv-x="1411" d="M63 733q0 23 22.5 49t159.5 161q168 166 304 302q17 17 41 17t41 -17l106 -104q17 -24 17 -41q0 -24 -17 -41l-325 -326l307 -307q16 -16 16 -41t-16 -41l-105 -104q-17 -17 -41 -17t-41 17q-158 158 -332 327q-101 97 -119 119t-18 47zM645 733q0 23 24 51t166 168 q165 163 295 293q17 17 41 17t41 -17l107 -104q16 -22 16 -41q0 -25 -16 -41l-326 -326l307 -307q17 -17 17 -41t-17 -41l-104 -104q-17 -17 -41 -17t-41 17q-158 158 -332 327q-101 97 -119 119t-18 47z" />
<glyph unicode="&#xad;" horiz-adv-x="1007" d="M90 715v129q0 26 19 45.5t47 19.5h661q29 0 48.5 -19.5t19.5 -45.5v-129q0 -26 -20 -46t-48 -20h-661q-28 0 -47 20t-19 46z" />
<glyph unicode="&#xae;" horiz-adv-x="1507" d="M41 799q0 157 54 293t148 232.5t225.5 152t281.5 55.5q149 0 281.5 -55.5t228 -151.5t151 -233t55.5 -293t-55.5 -293t-151 -233t-228 -151.5t-281.5 -55.5t-280.5 55.5t-225.5 151.5t-148.5 233t-54.5 293zM242 799q0 -235 143.5 -386t364.5 -151t368.5 152t147.5 385 t-147.5 384.5t-368.5 151.5q-222 0 -365 -151t-143 -385zM432 422v754q0 12 10 22t23 10h364q69 0 122 -52.5t53 -121.5q0 -55 -26 -91.5t-75 -70.5q11 -27 30.5 -82.5t31.5 -84.5q49 -138 102 -273q15 -43 -31 -43h-78q-4 0 -7.5 0.5t-6 1.5t-5 3t-4 3t-3 4.5t-2 4.5 l-2.5 5t-2 5l-148 389q-32 -17 -65.5 -35t-74.5 -39t-67 -35v-266q0 -14 -1.5 -21.5t-8.5 -13.5t-22 -6h-74q-13 0 -23 10.5t-10 22.5zM571 850q258 123 285 164v-2q6 9 6 22q0 17 -11 28t-30 11h-250v-223z" />
<glyph unicode="&#xaf;" horiz-adv-x="827" d="M12 1444v129q0 26 19 45.5t47 19.5h661q29 0 48.5 -20t19.5 -45v-129q0 -26 -20 -46t-48 -20h-661q-27 0 -44 19t-22 47z" />
<glyph unicode="&#xb0;" horiz-adv-x="528" d="M20 1376q0 99 70.5 170.5t171.5 71.5q97 0 171.5 -72t74.5 -170q0 -102 -73.5 -171.5t-172.5 -69.5t-170.5 69.5t-71.5 171.5zM156 1376q-4 -51 25.5 -82.5t80.5 -31.5q50 0 80 31t35 83q-5 50 -35.5 82.5t-79.5 32.5q-53 0 -82 -33t-24 -82z" />
<glyph unicode="&#xb1;" horiz-adv-x="1007" d="M102 188q0 26 19 46t47 20h661q28 0 48 -20t20 -46v-129q0 -25 -19.5 -43t-48.5 -18h-661q-28 0 -46 18t-18 43zM102 715v129q0 26 19 45.5t47 19.5h661q29 0 48.5 -19.5t19.5 -45.5v-129q0 -26 -20 -46t-48 -20h-661q-28 0 -47 20t-19 46zM371 449v661q0 28 19.5 48 t45.5 20h129q26 0 46 -20t20 -48v-661q0 -28 -20 -47t-46 -19h-129q-26 0 -45.5 19t-19.5 47z" />
<glyph unicode="&#xb4;" horiz-adv-x="501" d="M36.5 1355.5q-12.5 18.5 6.5 47.5l98 180q36 51 113 51h139q38 0 51.5 -17t-4.5 -46l-141 -178q-53 -56 -111 -56h-96q-43 0 -55.5 18.5z" />
<glyph unicode="&#xb7;" d="M121 713v151q0 26 18.5 46t46.5 20h140q28 0 47.5 -20t19.5 -46v-151q0 -26 -19.5 -46t-47.5 -20h-140q-28 0 -46.5 20t-18.5 46z" />
<glyph unicode="&#xb8;" horiz-adv-x="753" d="M74 -459q-29 59 16 82l90 51q24 11 44.5 1.5t33.5 -33.5q26 -43 74 -43h39q39 0 61.5 19t22.5 54q0 33 -23.5 56.5t-60.5 23.5h-9h-88q-29 0 -38 18.5t2 49.5l71 190q41 58 88 58h72q33 0 42.5 -21t-3.5 -47l-37 -94q27 -4 41 -10q74 -24 117 -82t43 -142 q0 -112 -80 -193t-189 -81h-98q-111 0 -194 86q-24 31 -37 57z" />
<glyph unicode="&#xbb;" horiz-adv-x="1411" d="M63 1100q0 17 17 41l106 104q17 17 41 17t41 -17q178 -181 363 -363q90 -89 106.5 -108.5t16.5 -40.5q0 -25 -17.5 -46t-119.5 -120q-174 -169 -332 -327q-17 -17 -41 -17t-41 17l-105 104q-16 16 -16 41t16 41l308 307l-326 326q-17 17 -17 41zM645 1100q0 17 17 41 l106 104q17 17 41 17t41 -17q130 -130 295 -293q141 -140 165.5 -168t24.5 -51q0 -25 -17.5 -46t-119.5 -120q-174 -169 -332 -327q-17 -17 -41 -17t-41 17l-104 104q-16 16 -16 41t16 41l307 307l-325 326q-17 17 -17 41z" />
<glyph unicode="&#xbf;" horiz-adv-x="1353" d="M68 -251q-1 68 15 132t54.5 120.5t93.5 92.5q137 89 160 103l150 82v299q0 33 16.5 49t58.5 16h138q28 0 43.5 -19t15.5 -46v-281q0 -48 -3 -73t-15.5 -54t-38.5 -51t-72 -49l-233 -129q-55 -45 -66 -56q-51 -57 -27 -135q27 -78 93 -84h327q101 0 152.5 29t68.5 102 q1 11 2 23.5t2 20.5t1 12v8q0 40 13.5 55.5t53.5 15.5h137q41 0 53.5 -15t12.5 -56v-37q0 -129 -49 -230q-30 -64 -125 -129q-92 -65 -322 -65h-334q-90 0 -162 29t-116 78.5t-70.5 111.5t-27.5 130zM541 836v151q0 26 19.5 46t47.5 20h140q28 0 46.5 -20t18.5 -46v-151 q0 -26 -18.5 -46t-46.5 -20h-140q-28 0 -47.5 20t-19.5 46z" />
<glyph unicode="&#xc0;" horiz-adv-x="1411" d="M25 66q0 4 119 355t249 728.5t154 435.5q9 20 14.5 28.5t18.5 16.5t32 8h181q9 0 15.5 -1t12.5 -5t9.5 -6t8 -9t6 -9.5t6 -11.5l5.5 -11l524 -1495q2 -14 2 -24q0 -66 -65 -66h-148q-20 0 -33 8t-18 16t-14 29l-186 539l-504 -223l-113 -316q-1 -2 -4 -9t-4 -9t-3.5 -7.5 t-4 -7.5l-4.5 -6t-6 -5t-7 -3.5t-8.5 -3.5t-10.5 -1.5t-13 -0.5h-144q-26 0 -46.5 19t-20.5 47zM399 2047q14 17 52 17h145q77 0 113 -51l98 -180q19 -29 6.5 -47.5t-55.5 -18.5h-103q-57 0 -110 56l-142 178q-18 29 -4 46zM537 739l282 125q-43 113 -47 129q-3 12 -10 32 t-10 32q-5 13 -13.5 39.5t-17.5 53t-19 54.5z" />
<glyph unicode="&#xc1;" horiz-adv-x="1411" d="M25 66q0 4 119 355t249 728.5t154 435.5q9 20 14.5 28.5t18.5 16.5t32 8h181q9 0 15.5 -1t12.5 -5t9.5 -6t8 -9t6 -9.5t6 -11.5l5.5 -11l524 -1495q2 -14 2 -24q0 -66 -65 -66h-148q-20 0 -33 8t-18 16t-14 29l-186 539l-504 -223l-113 -316q-1 -2 -4 -9t-4 -9t-3.5 -7.5 t-4 -7.5l-4.5 -6t-6 -5t-7 -3.5t-8.5 -3.5t-10.5 -1.5t-13 -0.5h-144q-26 0 -46.5 19t-20.5 47zM537 739l282 125q-43 113 -47 129q-3 12 -10 32t-10 32q-5 13 -13.5 39.5t-17.5 53t-19 54.5zM584 1787.5q-12 18.5 6 47.5l98 180q36 51 113 51h139q38 0 51.5 -17t-4.5 -46 l-141 -178q-53 -56 -111 -56h-96q-43 0 -55 18.5z" />
<glyph unicode="&#xc2;" horiz-adv-x="1411" d="M25 66q0 4 119 355t249 728.5t154 435.5q9 20 14.5 28.5t18.5 16.5t32 8h181q9 0 15.5 -1t12.5 -5t9.5 -6t8 -9t6 -9.5t6 -11.5l5.5 -11l524 -1495q2 -14 2 -24q0 -66 -65 -66h-148q-20 0 -33 8t-18 16t-14 29l-186 539l-504 -223l-113 -316q-1 -2 -4 -9t-4 -9t-3.5 -7.5 t-4 -7.5l-4.5 -6t-6 -5t-7 -3.5t-8.5 -3.5t-10.5 -1.5t-13 -0.5h-144q-26 0 -46.5 19t-20.5 47zM318 1785.5q-10 22.5 22 53.5l192 178q48 56 115 56h107q40 0 66 -13.5t57 -42.5l190 -178q34 -31 23.5 -53.5t-54.5 -22.5h-137q-36 0 -60.5 11t-60.5 43l-76 69l-77 -69 q-36 -32 -60.5 -43t-60.5 -11h-133q-43 0 -53 22.5zM537 739l282 125q-43 113 -47 129q-12 45 -20 64q-5 13 -13.5 39.5t-17.5 53t-19 54.5z" />
<glyph unicode="&#xc3;" horiz-adv-x="1411" d="M25 66q0 4 119 355t249 728.5t154 435.5q9 20 14.5 28.5t18.5 16.5t32 8h181q9 0 15.5 -1t12.5 -5t9.5 -6t8 -9t6 -9.5t6 -11.5l5.5 -11l524 -1495q2 -14 2 -24q0 -66 -65 -66h-148q-20 0 -33 8t-18 16t-14 29l-186 539l-504 -223l-113 -316q-1 -2 -4 -9t-4 -9t-3.5 -7.5 t-4 -7.5l-4.5 -6t-6 -5t-7 -3.5t-8.5 -3.5t-10.5 -1.5t-13 -0.5h-144q-26 0 -46.5 19t-20.5 47zM375 1831q-18 15 0 59l45 111q11 24 34 32t54 -3q59 -22 111 -22t92 11.5t81.5 21.5t97.5 2t122 -42q25 -9 35 -29q20 -15 0 -57l-52 -111q-12 -27 -40.5 -31t-47.5 9 q-46 30 -94 34t-93 -8t-91.5 -24.5t-105 -10.5t-117.5 29q-23 10 -31 29zM537 739l282 125q-43 113 -47 129q-3 12 -10 32t-10 32q-5 13 -13.5 39.5t-17.5 53t-19 54.5z" />
<glyph unicode="&#xc4;" horiz-adv-x="1411" d="M25 66q0 4 119 355t249 728.5t154 435.5q9 20 14.5 28.5t18.5 16.5t32 8h181q9 0 15.5 -1t12.5 -5t9.5 -6t8 -9t6 -9.5t6 -11.5l5.5 -11l524 -1495q2 -14 2 -24q0 -66 -65 -66h-148q-20 0 -33 8t-18 16t-14 29l-186 539l-504 -223l-113 -316q-10 -23 -13.5 -30t-17.5 -15 t-37 -8h-141q-26 0 -46.5 19t-20.5 47zM336 1833v143q0 26 17.5 45t45.5 19h133q26 0 45 -19.5t19 -44.5v-143q0 -25 -19 -44.5t-45 -19.5h-133q-28 0 -45.5 19t-17.5 45zM537 739l282 125q-43 113 -47 129q-3 12 -10 32t-10 32q-5 13 -13.5 39.5t-17.5 53t-19 54.5z M803 1833v143q0 25 17.5 44.5t43.5 19.5h133q28 0 47 -19t19 -45v-143q0 -26 -19 -45t-47 -19h-133q-26 0 -43.5 19.5t-17.5 44.5z" />
<glyph unicode="&#xc5;" horiz-adv-x="1411" d="M25 66q0 6 196 582t287 835l20 57l-26 25q-66 63 -66 166q0 96 65.5 164.5t157.5 68.5h84q90 0 156 -69.5t66 -163.5q0 -97 -66 -166q-14 -17 -27 -25l508 -1450q2 -14 2 -24q0 -66 -65 -66h-148q-20 0 -33 8t-18 16t-14 29l-186 539l-504 -223l-113 -316 q-10 -23 -13.5 -30t-17.5 -15t-37 -8h-141q-26 0 -46.5 19t-20.5 47zM537 739l282 125l-117 373zM612 1720q0 -29 21.5 -51t50.5 -22h33q29 0 50 22t21 51q0 32 -20.5 53t-50.5 21h-33q-30 0 -51 -21t-21 -53z" />
<glyph unicode="&#xc6;" horiz-adv-x="1994" d="M38.5 21q-16.5 21 2.5 65q7 12 60 112.5t149.5 281t208.5 386.5q384 707 389 719q11 24 29 36.5t55 16.5h880q24 0 39 -6t20.5 -19t7 -23.5t1.5 -30.5v-113q0 -55 -13.5 -67.5t-68.5 -12.5h-586v-391h500q29 0 47.5 -19.5t18.5 -48.5v-131q0 -29 -18.5 -48t-47.5 -19 h-500v-437h613q55 0 68.5 -12.5t13.5 -66.5v-111q0 -21 -1.5 -31t-7 -24.5t-20.5 -20.5t-39 -6h-827q-30 0 -50 18.5t-20 47.5v458l-432 -141l-166 -320q-24 -43 -37 -53t-49 -10h-162q-41 0 -57.5 21zM645 698l297 103v432z" />
<glyph unicode="&#xc7;" horiz-adv-x="1546" d="M115 641v356q0 181 89 334.5t242.5 243.5t333.5 90q247 0 428.5 -154t231.5 -397q0 -1 -1 -10t-1 -10q-18 -60 -64 -60h-137q-24 0 -37.5 11t-25.5 34q-3 9 -12.5 35t-13.5 36.5t-12 29t-16 32t-18 27.5q-56 76 -140 118t-182 42q-164 0 -281.5 -118t-117.5 -284v-356 q0 -166 117.5 -283.5t281.5 -117.5q98 0 182 42.5t144 120.5q47 63 74 177l-2 -5q9 56 63 56h137q28 0 47 -20t19 -46q0 -52 -27 -127q-56 -156 -170 -273t-264 -157l-63 -14l-33 -88q27 -4 41 -10q74 -24 116.5 -82t42.5 -142q0 -112 -79.5 -193t-188.5 -81h-98 q-112 0 -195 86q-24 31 -37 57q-28 59 17 82l90 51q24 11 44.5 1.5t33.5 -33.5q26 -43 74 -43h38q39 0 61.5 19t22.5 54q0 33 -23.5 56.5t-60.5 23.5h-96q-29 0 -39.5 19.5t2.5 48.5l60 162q-115 10 -191 45q-184 80 -295.5 244t-111.5 370z" />
<glyph unicode="&#xc8;" horiz-adv-x="1359" d="M119 1573q0 29 19.5 47t49.5 18h990q20 0 33 -5t20 -10.5t10 -18.5t3.5 -20.5t0.5 -24.5v-113q0 -55 -13.5 -67.5t-68.5 -12.5h-768v-362h682q29 0 47.5 -19.5t18.5 -48.5v-139q0 -29 -18.5 -48.5t-47.5 -19.5h-682v-457h795q55 0 68.5 -12.5t13.5 -66.5v-111 q0 -21 -1.5 -31t-7 -24.5t-20.5 -20.5t-39 -6h-1014q-29 0 -48 18.5t-19 47.5zM403.5 2061.5q13.5 17.5 51.5 17.5h159q77 0 113 -51l98 -181q18 -29 6 -47t-55 -18h-117q-58 0 -110 55l-141 178q-18 29 -4.5 46.5z" />
<glyph unicode="&#xc9;" horiz-adv-x="1359" d="M119 1573q0 29 19.5 47t49.5 18h990q20 0 33 -5t20 -10.5t10 -18.5t3.5 -20.5t0.5 -24.5v-113q0 -55 -13.5 -67.5t-68.5 -12.5h-768v-362h682q29 0 47.5 -19.5t18.5 -48.5v-139q0 -29 -18.5 -48.5t-47.5 -19.5h-682v-457h795q55 0 68.5 -12.5t13.5 -66.5v-111 q0 -21 -1.5 -31t-7 -24.5t-20.5 -20.5t-39 -6h-1014q-29 0 -48 18.5t-19 47.5zM567.5 1796q-12.5 18 5.5 47l99 180q37 52 112 52h140q38 0 51.5 -17.5t-4.5 -46.5l-142 -178q-52 -55 -110 -55h-96q-43 0 -55.5 18z" />
<glyph unicode="&#xca;" horiz-adv-x="1359" d="M119 1573q0 29 19.5 47t49.5 18h990q20 0 33 -5t20 -10.5t10 -18.5t3.5 -20.5t0.5 -24.5v-113q0 -55 -13.5 -67.5t-68.5 -12.5h-768v-362h682q29 0 47.5 -19.5t18.5 -48.5v-139q0 -29 -18.5 -48.5t-47.5 -19.5h-682v-457h795q55 0 68.5 -12.5t13.5 -66.5v-111 q0 -21 -1.5 -31t-7 -24.5t-20.5 -20.5t-39 -6h-1014q-29 0 -48 18.5t-19 47.5zM307.5 1794q-9.5 22 22.5 53l192 178q48 56 115 56h106q40 0 66 -13.5t57 -42.5l191 -178q34 -31 23.5 -53t-54.5 -22h-137q-36 0 -60.5 11t-60.5 42l-76 69l-78 -69q-36 -31 -60 -42t-60 -11 h-134q-43 0 -52.5 22z" />
<glyph unicode="&#xcb;" horiz-adv-x="1359" d="M119 1573q0 29 19.5 47t49.5 18h990q20 0 33 -5t20 -10.5t10 -18.5t3.5 -20.5t0.5 -24.5v-113q0 -55 -13.5 -67.5t-68.5 -12.5h-768v-362h682q29 0 47.5 -19.5t18.5 -48.5v-139q0 -29 -18.5 -48.5t-47.5 -19.5h-682v-457h795q55 0 68.5 -12.5t13.5 -66.5v-111 q0 -21 -1.5 -31t-7 -24.5t-20.5 -20.5t-39 -6h-1014q-29 0 -48 18.5t-19 47.5zM324 1829v131q0 22 17.5 39.5t45.5 17.5h133q25 0 44.5 -18t19.5 -39v-131q0 -21 -19 -38t-45 -17h-133q-28 0 -45.5 16.5t-17.5 38.5zM793 1829v131q0 21 18 39t43 18h133q28 0 47 -18t19 -39 v-131q0 -21 -19 -38t-47 -17h-133q-25 0 -43 17t-18 38z" />
<glyph unicode="&#xcc;" d="M-32.5 2053.5q13.5 17.5 46.5 17.5h146q75 0 112 -52l99 -180q18 -29 6 -47t-55 -18h-103q-58 0 -110 55l-134 178q-21 29 -7.5 46.5zM121 1573q0 26 18.5 45.5t46.5 19.5h140q28 0 47.5 -19.5t19.5 -45.5v-1507q0 -26 -19.5 -46t-47.5 -20h-138q-28 0 -45.5 20t-17.5 46 z" />
<glyph unicode="&#xcd;" d="M121 1573q0 26 18.5 45.5t46.5 19.5h140q28 0 47.5 -19.5t19.5 -45.5v-1507q0 -26 -19.5 -46t-47.5 -20h-138q-28 0 -45.5 20t-17.5 46zM146 1785.5q-12 18.5 6 47.5l98 180q36 51 112 51h140q38 0 51.5 -17t-4.5 -46l-141 -178q-53 -56 -111 -56h-96q-43 0 -55 18.5z " />
<glyph unicode="&#xce;" d="M-121 1783.5q-9 22.5 21 53.5l184 178q48 56 115 56h106q40 0 66 -13.5t57 -42.5l190 -178q34 -31 24 -53.5t-54 -22.5h-137q-36 0 -60.5 11t-60.5 43l-76 69l-78 -69q-36 -32 -60.5 -43t-60.5 -11h-125q-42 0 -51 22.5zM121 1573q0 26 18.5 45.5t46.5 19.5h140 q28 0 47.5 -19.5t19.5 -45.5v-1507q0 -26 -19.5 -46t-47.5 -20h-138q-28 0 -45.5 20t-17.5 46z" />
<glyph unicode="&#xcf;" d="M-100 1837v143q0 26 17.5 45t45.5 19h125q26 0 45 -19.5t19 -44.5v-143q0 -25 -19 -44t-45 -19h-125q-28 0 -45.5 18.5t-17.5 44.5zM121 1573q0 26 18.5 45.5t46.5 19.5h140q28 0 47.5 -19.5t19.5 -45.5v-1507q0 -26 -19.5 -46t-47.5 -20h-138q-28 0 -45.5 20t-17.5 46z M358 1837v143q0 25 18 44.5t44 19.5h133q28 0 46.5 -19t18.5 -45v-143q0 -26 -18.5 -44.5t-46.5 -18.5h-133q-26 0 -44 19t-18 44z" />
<glyph unicode="&#xd0;" horiz-adv-x="1527" d="M-10 887q0 27 14 46t41 19h72v621q0 25 20 45t49 20h580q176 0 326 -87.5t237.5 -237t87.5 -324.5v-340q0 -175 -87.5 -324.5t-237.5 -237t-326 -87.5h-580q-29 0 -47 18.5t-18 47.5l-4 647h-72q-25 0 -39 19t-14 46zM391 272h375q155 0 267 111.5t112 265.5v340 q0 154 -112 265.5t-267 111.5h-375v-414h281q28 0 47.5 -19.5t19.5 -45.5v-109q0 -26 -19.5 -45.5t-47.5 -19.5h-281v-441z" />
<glyph unicode="&#xd1;" horiz-adv-x="1499" d="M121 1573q0 26 18.5 45.5t46.5 19.5h152q38 0 55 -32v2l703 -1057v1022q0 26 19.5 45.5t47.5 19.5h140q28 0 47.5 -19.5t19.5 -45.5v-1507q0 -26 -19.5 -46t-47.5 -20h-140q-38 0 -57 31q-137 205 -711 1054v-1019q0 -26 -19.5 -46t-47.5 -20h-140q-28 0 -45.5 20 t-17.5 46zM414 1817q-18 15 0 59l45 111q11 24 34 31.5t54 -3.5q59 -22 111 -22t92 12t81.5 22t97.5 2t122 -42q24 -9 34 -29q20 -15 0 -57l-51 -111q-12 -27 -40.5 -31.5t-47.5 8.5q-46 30 -94.5 34t-93.5 -7.5t-91.5 -24t-105 -10.5t-117.5 29q-22 9 -30 29z" />
<glyph unicode="&#xd2;" horiz-adv-x="1628" d="M94 662v321q0 139 57.5 264.5t154 216t229.5 144t278 53.5q146 0 278 -53.5t227 -144t151.5 -216t56.5 -264.5v-321q0 -139 -57 -265t-153 -217t-228 -144.5t-277 -53.5t-277.5 53.5t-229 144.5t-153.5 217t-57 265zM371 662q0 -172 129.5 -295t310.5 -123q180 0 309 123 t129 295v321q0 172 -129 295t-309 123q-181 0 -310.5 -123.5t-129.5 -294.5v-321zM523.5 2061.5q13.5 17.5 51.5 17.5h146q77 0 113 -51l98 -181q18 -29 6 -47t-55 -18h-103q-58 0 -110 55l-142 178q-18 29 -4.5 46.5z" />
<glyph unicode="&#xd3;" horiz-adv-x="1628" d="M94 662v321q0 139 57.5 264.5t154 216t229.5 144t278 53.5q146 0 278 -53.5t227 -144t151.5 -216t56.5 -264.5v-321q0 -139 -57 -265t-153 -217t-228 -144.5t-277 -53.5t-277.5 53.5t-229 144.5t-153.5 217t-57 265zM371 662q0 -172 129.5 -295t310.5 -123q180 0 309 123 t129 295v321q0 172 -129 295t-309 123q-181 0 -310.5 -123.5t-129.5 -294.5v-321zM686 1800q-12 18 6 47l99 181q36 51 112 51h139q38 0 52 -17.5t-4 -46.5l-142 -178q-52 -55 -110 -55h-97q-43 0 -55 18z" />
<glyph unicode="&#xd4;" horiz-adv-x="1628" d="M94 662v321q0 139 57.5 264.5t154 216t229.5 144t278 53.5q146 0 278 -53.5t227 -144t151.5 -216t56.5 -264.5v-321q0 -139 -57 -265t-153 -217t-228 -144.5t-277 -53.5t-277.5 53.5t-229 144.5t-153.5 217t-57 265zM371 662q0 -172 129.5 -295t310.5 -123q180 0 309 123 t129 295v321q0 172 -129 295t-309 123q-181 0 -310.5 -123.5t-129.5 -294.5v-321zM420 1791.5q-10 22.5 22 53.5l193 178q48 56 115 56h106q40 0 66 -13.5t57 -42.5l190 -178q34 -31 24 -53.5t-54 -22.5h-138q-36 0 -60 11t-60 43l-76 69l-78 -69q-36 -32 -60.5 -43 t-60.5 -11h-133q-43 0 -53 22.5z" />
<glyph unicode="&#xd5;" horiz-adv-x="1628" d="M94 662v321q0 139 57.5 264.5t154 216t229.5 144t278 53.5q146 0 278 -53.5t227 -144t151.5 -216t56.5 -264.5v-321q0 -139 -57 -265t-153 -217t-228 -144.5t-277 -53.5t-277.5 53.5t-229 144.5t-153.5 217t-57 265zM371 662q0 -172 129.5 -295t310.5 -123q180 0 309 123 t129 295v321q0 172 -129 295t-309 123q-181 0 -310.5 -123.5t-129.5 -294.5v-321zM481 1847q-18 15 0 60l45 110q11 24 34 32t54 -3q59 -22 111 -22t92 11.5t81.5 21.5t97.5 2t122 -42q26 -10 35 -28q21 -15 0 -58l-51 -110q-12 -27 -40.5 -31.5t-47.5 8.5q-45 31 -93 35.5 t-93.5 -7.5t-92.5 -24.5t-106 -11t-117 28.5q-23 10 -31 28z" />
<glyph unicode="&#xd6;" horiz-adv-x="1628" d="M94 662v321q0 139 57.5 264.5t154 216t229.5 144t278 53.5q146 0 278 -53.5t227 -144t151.5 -216t56.5 -264.5v-321q0 -139 -57 -265t-153 -217t-228 -144.5t-277 -53.5t-277.5 53.5t-229 144.5t-153.5 217t-57 265zM371 662q0 -172 129.5 -295t310.5 -123q180 0 309 123 t129 295v321q0 172 -129 295t-309 123q-181 0 -310.5 -123.5t-129.5 -294.5v-321zM438 1841v137q0 24 18 42t46 18h135q28 0 46.5 -18t18.5 -42v-137q0 -25 -18 -43t-47 -18h-135q-28 0 -46 18t-18 43zM913 1841v137q0 24 18 42t44 18h135q30 0 49 -18t19 -42v-137 q0 -25 -19 -43t-49 -18h-135q-26 0 -44 18t-18 43z" />
<glyph unicode="&#xd7;" horiz-adv-x="1007" d="M153 572.5q-1 24.5 21 48.5l141 141l-141 143q-20 23 -20 49.5t18 44.5l92 93q18 18 44 19t50 -21l142 -142l141 142q25 22 49.5 20.5t44.5 -20.5l92 -91q18 -18 18 -46t-20 -48l-137 -141l137 -141q22 -24 21 -49.5t-21 -45.5l-90 -90q-20 -20 -45 -21t-49 21l-141 142 l-142 -142q-24 -22 -49 -21t-45 21l-90 90q-20 20 -21 44.5z" />
<glyph unicode="&#xd8;" horiz-adv-x="1628" d="M94 662v321q0 139 57.5 264.5t154 216t229.5 144t278 53.5q144 0 277 -53l10 -4l61 118q18 26 37.5 38t50.5 12h105q99 0 57 -86l-106 -211l12 -13q209 -209 209 -479v-321q0 -139 -57 -265t-153 -217t-228 -144.5t-277 -53.5q-128 0 -250 38l-72 -139 q-18 -26 -37.5 -37.5t-50.5 -11.5h-104q-54 0 -66.5 25.5t9.5 60.5l112 219q-24 18 -47 41q-100 94 -155.5 219.5t-55.5 264.5zM371 662q0 -81 35 -162q28 -65 73 -115l502 983q-73 33 -170 33q-181 0 -310.5 -123.5t-129.5 -294.5v-321zM684 260q69 -16 127 -16 q180 0 309 123t129 295v321q0 81 -35 162q-13 31 -43 72z" />
<glyph unicode="&#xd9;" horiz-adv-x="1433" d="M121 494v1079q0 65 65 65h138q30 0 45 -12.5t17.5 -26.5t2.5 -40v-1065q0 -93 68 -159.5t161 -66.5h158q106 0 182 74t76 178v1039q0 38 12.5 58.5t55.5 20.5h135q68 0 68 -65v-1053q0 -141 -72 -261t-194 -189.5t-263 -69.5h-158q-204 0 -350.5 143.5t-146.5 350.5z M444.5 2045q13.5 17 51.5 17h145q77 0 113 -51l98 -180q18 -29 6 -47.5t-55 -18.5h-103q-57 0 -110 56l-141 178q-18 29 -4.5 46z" />
<glyph unicode="&#xda;" horiz-adv-x="1433" d="M121 494v1079q0 65 65 65h138q30 0 45 -12.5t17.5 -26.5t2.5 -40v-1065q0 -93 68 -159.5t161 -66.5h158q106 0 182 74t76 178v1039q0 38 12.5 58.5t55.5 20.5h135q68 0 68 -65v-1053q0 -141 -72 -261t-194 -189.5t-263 -69.5h-158q-204 0 -350.5 143.5t-146.5 350.5z M598 1783.5q-12 18.5 6 47.5l98 180q36 51 113 51h139q38 0 51.5 -17t-4.5 -46l-141 -178q-53 -56 -110 -56h-97q-43 0 -55 18.5z" />
<glyph unicode="&#xdb;" horiz-adv-x="1433" d="M121 1573q0 65 65 65h138q30 0 45 -12.5t17.5 -26.5t2.5 -40v-1065q0 -93 68 -159.5t161 -66.5h158q106 0 182 74t76 178v1039q0 38 12.5 58.5t55.5 20.5h135q68 0 68 -65v-1053q0 -141 -72 -261t-194 -189.5t-263 -69.5h-158q-101 0 -192 38.5t-157.5 103.5t-106 157 t-39.5 195zM318 1800q-10 22 22 53l192 179q47 55 115 55h107q41 0 67 -13t56 -42l190 -179q34 -31 23.5 -53t-54.5 -22h-137q-36 0 -60.5 11t-60.5 42l-76 70l-77 -70q-36 -31 -60.5 -42t-60.5 -11h-133q-43 0 -53 22z" />
<glyph unicode="&#xdc;" horiz-adv-x="1433" d="M121 494v1079q0 65 65 65h138q30 0 45 -12.5t17.5 -26.5t2.5 -40v-1065q0 -93 68 -159.5t161 -66.5h158q106 0 182 74t76 178v1039q0 38 12.5 58.5t55.5 20.5h135q68 0 68 -65v-1053q0 -141 -72 -261t-194 -189.5t-263 -69.5h-158q-204 0 -350.5 143.5t-146.5 350.5z M346 1831v129q0 24 18 41.5t46 17.5h133q26 0 44.5 -17.5t18.5 -41.5v-129q0 -23 -18.5 -40t-44.5 -17h-133q-29 0 -46.5 16.5t-17.5 40.5zM815 1831v129q0 24 18 41.5t44 17.5h133q28 0 46.5 -17.5t18.5 -41.5v-129q0 -24 -18 -40.5t-47 -16.5h-133q-26 0 -44 17t-18 40z " />
<glyph unicode="&#xdd;" horiz-adv-x="1425" d="M25 1575q0 63 63 63h182q39 0 60 -30l383 -568q326 502 387 576l-4 -4q20 26 55 26h184q66 0 66 -65q0 -20 -25 -55q0 -1 -1 -2.5t-1 -2.5l-2 -2l-526 -751v-680q0 -20 -1.5 -30.5t-7 -24t-20.5 -19.5t-39 -6h-139q-23 0 -37 6t-20 19t-7.5 24.5t-1.5 30.5v684l-540 772 q-8 14 -8 39zM584 1779.5q-12 18.5 6 47.5l98 180q36 51 113 51h139q38 0 51.5 -17t-4.5 -46l-141 -178q-53 -56 -111 -56h-96q-43 0 -55 18.5z" />
<glyph unicode="&#xde;" horiz-adv-x="1325" d="M119 1573q0 26 19.5 45.5t47.5 19.5h140q23 0 37 -4.5t19.5 -14t7 -17.5t1.5 -23v-184h483q92 0 165.5 -29.5t118 -78.5t71.5 -111.5t27.5 -131.5t-16 -134t-56.5 -122.5t-97 -95.5q-131 -85 -159 -102l-537 -297v-213q0 -19 -1.5 -30.5t-7 -24.5t-19.5 -19t-37 -6h-140 q-28 0 -45.5 20t-17.5 46zM391 600q165 87 332 182q85 52 106 68q81 61 89 74q40 63 24 131q-15 67 -82 67h-469v-522z" />
<glyph unicode="&#xdf;" horiz-adv-x="1441" d="M100 1757q0 26 19 46t47 20h160q28 0 47.5 -20t19.5 -46v-119h465q144 0 244 -102.5t100 -245.5q0 -106 -37 -170q-38 -66 -164 -133q167 -31 242.5 -119t75.5 -254v-170q0 -184 -130 -314t-315 -130h-481v-197q0 -26 -19.5 -45.5t-47.5 -19.5h-156q-28 0 -47 19.5 t-19 45.5zM391 272h483q71 0 123 52l21 24q31 37 31 96q0 12 1 31t1 31q0 9 1 28.5t1 28.5q0 102 -42 148.5t-106 46.5h-262l-252 -137v-349zM391 915q167 87 332.5 184.5t191.5 137.5q13 19 13 53q0 31 -20 53.5t-50 22.5h-467v-451z" />
<glyph unicode="&#xe0;" horiz-adv-x="1411" d="M25 66q0 4 119 355t249 728.5t154 435.5q9 20 14.5 28.5t18.5 16.5t32 8h181q9 0 15.5 -1t12.5 -5t9.5 -6t8 -9t6 -9.5t6 -11.5l5.5 -11l524 -1495q2 -14 2 -24q0 -66 -65 -66h-148q-20 0 -33 8t-18 16t-14 29l-186 539l-504 -223l-113 -316q-1 -2 -4 -9t-4 -9t-3.5 -7.5 t-4 -7.5l-4.5 -6t-6 -5t-7 -3.5t-8.5 -3.5t-10.5 -1.5t-13 -0.5h-144q-26 0 -46.5 19t-20.5 47zM411.5 2045q13.5 17 51.5 17h145q77 0 113 -51l98 -180q19 -29 6.5 -47.5t-55.5 -18.5h-102q-58 0 -111 56l-141 178q-18 29 -4.5 46zM537 739l282 125q-43 113 -47 129 q-3 12 -10 32t-10 32q-5 13 -13.5 39.5t-17.5 53t-19 54.5z" />
<glyph unicode="&#xe1;" horiz-adv-x="1411" d="M25 66q0 4 119 355t249 728.5t154 435.5q9 20 14.5 28.5t18.5 16.5t32 8h181q9 0 15.5 -1t12.5 -5t9.5 -6t8 -9t6 -9.5t6 -11.5l5.5 -11l524 -1495q2 -14 2 -24q0 -66 -65 -66h-148q-20 0 -33 8t-18 16t-14 29l-186 539l-504 -223l-113 -316q-1 -2 -4 -9t-4 -9t-3.5 -7.5 t-4 -7.5l-4.5 -6t-6 -5t-7 -3.5t-8.5 -3.5t-10.5 -1.5t-13 -0.5h-144q-26 0 -46.5 19t-20.5 47zM537 739l282 125q-43 113 -47 129q-3 12 -10 32t-10 32q-5 13 -13.5 39.5t-17.5 53t-19 54.5zM615 1792q-12 18 6 47l98 180q37 52 112 52h140q38 0 51.5 -17.5t-4.5 -46.5 l-141 -178q-52 -55 -111 -55h-96q-43 0 -55 18z" />
<glyph unicode="&#xe2;" horiz-adv-x="1411" d="M25 66q0 4 119 355t249 728.5t154 435.5q9 20 14.5 28.5t18.5 16.5t32 8h181q9 0 15.5 -1t12.5 -5t9.5 -6t8 -9t6 -9.5t6 -11.5l5.5 -11l524 -1495q2 -14 2 -24q0 -66 -65 -66h-148q-20 0 -33 8t-18 16t-14 29l-186 539l-504 -223l-113 -316q-1 -2 -4 -9t-4 -9t-3.5 -7.5 t-4 -7.5l-4.5 -6t-6 -5t-7 -3.5t-8.5 -3.5t-10.5 -1.5t-13 -0.5h-144q-26 0 -46.5 19t-20.5 47zM318 1785.5q-10 22.5 22 53.5l192 178q48 56 115 56h107q40 0 66 -13.5t57 -42.5l190 -178q34 -31 23.5 -53.5t-54.5 -22.5h-137q-36 0 -60.5 11t-60.5 43l-76 69l-77 -69 q-36 -32 -60.5 -43t-60.5 -11h-133q-43 0 -53 22.5zM537 739l282 125q-43 113 -47 129q-12 45 -20 64q-5 13 -13.5 39.5t-17.5 53t-19 54.5z" />
<glyph unicode="&#xe3;" horiz-adv-x="1411" d="M25 66q0 4 119 355t249 728.5t154 435.5q9 20 14.5 28.5t18.5 16.5t32 8h181q9 0 15.5 -1t12.5 -5t9.5 -6t8 -9t6 -9.5t6 -11.5l5.5 -11l524 -1495q2 -14 2 -24q0 -66 -65 -66h-148q-20 0 -33 8t-18 16t-14 29l-186 539l-504 -223l-113 -316q-1 -2 -4 -9t-4 -9t-3.5 -7.5 t-4 -7.5l-4.5 -6t-6 -5t-7 -3.5t-8.5 -3.5t-10.5 -1.5t-13 -0.5h-144q-26 0 -46.5 19t-20.5 47zM375 1831q-18 15 0 59l45 111q11 24 34 32t54 -3q59 -22 111 -22t92 11.5t81.5 21.5t97.5 2t122 -42q25 -9 35 -29q20 -15 0 -57l-52 -111q-12 -27 -40.5 -31t-47.5 9 q-46 30 -94 34t-93 -8t-91.5 -24.5t-105 -10.5t-117.5 29q-23 10 -31 29zM537 739l282 125q-43 113 -47 129q-3 12 -10 32t-10 32q-5 13 -13.5 39.5t-17.5 53t-19 54.5z" />
<glyph unicode="&#xe4;" horiz-adv-x="1411" d="M25 66q0 4 119 355t249 728.5t154 435.5q9 20 14.5 28.5t18.5 16.5t32 8h181q9 0 15.5 -1t12.5 -5t9.5 -6t8 -9t6 -9.5t6 -11.5l5.5 -11l524 -1495q2 -14 2 -24q0 -66 -65 -66h-148q-20 0 -33 8t-18 16t-14 29l-186 539l-504 -223l-113 -316q-10 -23 -13.5 -30t-17.5 -15 t-37 -8h-141q-26 0 -46.5 19t-20.5 47zM336 1833v143q0 26 17.5 45t45.5 19h133q26 0 45 -19.5t19 -44.5v-143q0 -25 -19 -44.5t-45 -19.5h-133q-28 0 -45.5 19t-17.5 45zM537 739l282 125q-43 113 -47 129q-3 12 -10 32t-10 32q-5 13 -13.5 39.5t-17.5 53t-19 54.5z M803 1833v143q0 25 17.5 44.5t43.5 19.5h133q28 0 47 -19t19 -45v-143q0 -26 -19 -45t-47 -19h-133q-26 0 -43.5 19.5t-17.5 44.5z" />
<glyph unicode="&#xe5;" horiz-adv-x="1411" d="M25 66q0 6 196 582t287 835l20 57l-26 25q-66 63 -66 166q0 96 65.5 164.5t157.5 68.5h84q90 0 156 -69.5t66 -163.5q0 -97 -66 -166q-14 -17 -27 -25l508 -1450q2 -14 2 -24q0 -66 -65 -66h-148q-20 0 -33 8t-18 16t-14 29l-186 539l-504 -223l-113 -316 q-10 -23 -13.5 -30t-17.5 -15t-37 -8h-141q-26 0 -46.5 19t-20.5 47zM537 739l282 125l-117 373zM612 1720q0 -29 21.5 -51t50.5 -22h33q29 0 50 22t21 51q0 32 -20.5 53t-50.5 21h-33q-30 0 -51 -21t-21 -53z" />
<glyph unicode="&#xe6;" horiz-adv-x="1994" d="M38.5 21q-16.5 21 2.5 65q7 12 60 112.5t149.5 281t208.5 386.5q384 707 389 719q11 24 29 36.5t55 16.5h880q24 0 39 -6t20.5 -19t7 -23.5t1.5 -30.5v-113q0 -55 -13.5 -67.5t-68.5 -12.5h-586v-391h500q29 0 47.5 -19.5t18.5 -48.5v-131q0 -29 -18.5 -48t-47.5 -19 h-500v-437h613q55 0 68.5 -12.5t13.5 -66.5v-111q0 -21 -1.5 -31t-7 -24.5t-20.5 -20.5t-39 -6h-827q-30 0 -50 18.5t-20 47.5v458l-432 -141l-166 -320q-24 -43 -37 -53t-49 -10h-162q-41 0 -57.5 21zM645 698l297 103v432z" />
<glyph unicode="&#xe7;" horiz-adv-x="1546" d="M115 641v356q0 181 89 334.5t242.5 243.5t333.5 90q247 0 428.5 -154t231.5 -397q0 -1 -1 -10t-1 -10q-18 -60 -64 -60h-137q-24 0 -37.5 11t-25.5 34q-3 9 -12.5 35t-13.5 36.5t-12 29t-16 32t-18 27.5q-56 76 -140 118t-182 42q-164 0 -281.5 -118t-117.5 -284v-356 q0 -166 117.5 -283.5t281.5 -117.5q98 0 182 42.5t144 120.5q47 63 74 177l-2 -5q9 56 63 56h137q28 0 47 -20t19 -46q0 -52 -27 -127q-56 -156 -170 -273t-264 -157l-63 -14l-33 -88q27 -4 41 -10q74 -24 116.5 -82t42.5 -142q0 -112 -79.5 -193t-188.5 -81h-98 q-112 0 -195 86q-24 31 -37 57q-28 59 17 82l90 51q24 11 44.5 1.5t33.5 -33.5q26 -43 74 -43h38q39 0 61.5 19t22.5 54q0 33 -23.5 56.5t-60.5 23.5h-96q-29 0 -39.5 19.5t2.5 48.5l60 162q-115 10 -191 45q-184 80 -295.5 244t-111.5 370z" />
<glyph unicode="&#xe8;" horiz-adv-x="1359" d="M119 1573q0 29 19.5 47t49.5 18h990q20 0 33 -5t20 -10.5t10 -18.5t3.5 -20.5t0.5 -24.5v-113q0 -55 -13.5 -67.5t-68.5 -12.5h-768v-362h682q29 0 47.5 -19.5t18.5 -48.5v-139q0 -29 -18.5 -48.5t-47.5 -19.5h-682v-457h795q55 0 68.5 -12.5t13.5 -66.5v-111 q0 -21 -1.5 -31t-7 -24.5t-20.5 -20.5t-39 -6h-1014q-29 0 -48 18.5t-19 47.5zM403.5 2061.5q13.5 17.5 51.5 17.5h159q77 0 113 -51l98 -181q18 -29 6 -47t-55 -18h-117q-58 0 -110 55l-141 178q-18 29 -4.5 46.5z" />
<glyph unicode="&#xe9;" horiz-adv-x="1359" d="M119 1573q0 29 19.5 47t49.5 18h990q20 0 33 -5t20 -10.5t10 -18.5t3.5 -20.5t0.5 -24.5v-113q0 -55 -13.5 -67.5t-68.5 -12.5h-768v-362h682q29 0 47.5 -19.5t18.5 -48.5v-139q0 -29 -18.5 -48.5t-47.5 -19.5h-682v-457h795q55 0 68.5 -12.5t13.5 -66.5v-111 q0 -21 -1.5 -31t-7 -24.5t-20.5 -20.5t-39 -6h-1014q-29 0 -48 18.5t-19 47.5zM567.5 1796q-12.5 18 5.5 47l99 180q37 52 112 52h140q38 0 51.5 -17.5t-4.5 -46.5l-142 -178q-52 -55 -110 -55h-96q-43 0 -55.5 18z" />
<glyph unicode="&#xea;" horiz-adv-x="1359" d="M119 1573q0 29 19.5 47t49.5 18h990q20 0 33 -5t20 -10.5t10 -18.5t3.5 -20.5t0.5 -24.5v-113q0 -55 -13.5 -67.5t-68.5 -12.5h-768v-362h682q29 0 47.5 -19.5t18.5 -48.5v-139q0 -29 -18.5 -48.5t-47.5 -19.5h-682v-457h795q55 0 68.5 -12.5t13.5 -66.5v-111 q0 -21 -1.5 -31t-7 -24.5t-20.5 -20.5t-39 -6h-1014q-29 0 -48 18.5t-19 47.5zM307.5 1794q-9.5 22 22.5 53l192 178q48 56 115 56h106q40 0 66 -13.5t57 -42.5l191 -178q34 -31 23.5 -53t-54.5 -22h-137q-36 0 -60.5 11t-60.5 42l-76 69l-78 -69q-36 -31 -60 -42t-60 -11 h-134q-43 0 -52.5 22z" />
<glyph unicode="&#xeb;" horiz-adv-x="1359" d="M119 1573q0 29 19.5 47t49.5 18h990q20 0 33 -5t20 -10.5t10 -18.5t3.5 -20.5t0.5 -24.5v-113q0 -55 -13.5 -67.5t-68.5 -12.5h-768v-362h682q29 0 47.5 -19.5t18.5 -48.5v-139q0 -29 -18.5 -48.5t-47.5 -19.5h-682v-457h795q55 0 68.5 -12.5t13.5 -66.5v-111 q0 -21 -1.5 -31t-7 -24.5t-20.5 -20.5t-39 -6h-1014q-29 0 -48 18.5t-19 47.5zM324 1829v131q0 22 17.5 39.5t45.5 17.5h133q25 0 44.5 -18t19.5 -39v-131q0 -21 -19 -38t-45 -17h-133q-28 0 -45.5 16.5t-17.5 38.5zM793 1829v131q0 21 18 39t43 18h133q28 0 47 -18t19 -39 v-131q0 -21 -19 -38t-47 -17h-133q-25 0 -43 17t-18 38z" />
<glyph unicode="&#xec;" d="M-32.5 2053.5q13.5 17.5 46.5 17.5h146q75 0 112 -52l99 -180q18 -29 6 -47t-55 -18h-103q-58 0 -110 55l-134 178q-21 29 -7.5 46.5zM121 1573q0 26 18.5 45.5t46.5 19.5h140q28 0 47.5 -19.5t19.5 -45.5v-1507q0 -26 -19.5 -46t-47.5 -20h-138q-28 0 -45.5 20t-17.5 46 z" />
<glyph unicode="&#xed;" d="M121 1573q0 26 18.5 45.5t46.5 19.5h140q28 0 47.5 -19.5t19.5 -45.5v-1507q0 -26 -19.5 -46t-47.5 -20h-138q-28 0 -45.5 20t-17.5 46zM146 1785.5q-12 18.5 6 47.5l98 180q36 51 112 51h140q38 0 51.5 -17t-4.5 -46l-141 -178q-53 -56 -111 -56h-96q-43 0 -55 18.5z " />
<glyph unicode="&#xee;" d="M-121 1783.5q-9 22.5 21 53.5l184 178q48 56 115 56h106q40 0 66 -13.5t57 -42.5l190 -178q34 -31 24 -53.5t-54 -22.5h-137q-36 0 -60.5 11t-60.5 43l-76 69l-78 -69q-36 -32 -60.5 -43t-60.5 -11h-125q-42 0 -51 22.5zM121 1573q0 26 18.5 45.5t46.5 19.5h140 q28 0 47.5 -19.5t19.5 -45.5v-1507q0 -26 -19.5 -46t-47.5 -20h-138q-28 0 -45.5 20t-17.5 46z" />
<glyph unicode="&#xef;" d="M-100 1837v143q0 26 17.5 45t45.5 19h125q26 0 45 -19.5t19 -44.5v-143q0 -25 -19 -44t-45 -19h-125q-28 0 -45.5 18.5t-17.5 44.5zM121 1573q0 26 18.5 45.5t46.5 19.5h140q28 0 47.5 -19.5t19.5 -45.5v-1507q0 -26 -19.5 -46t-47.5 -20h-138q-28 0 -45.5 20t-17.5 46z M358 1837v143q0 25 18 44.5t44 19.5h133q28 0 46.5 -19t18.5 -45v-143q0 -26 -18.5 -44.5t-46.5 -18.5h-133q-26 0 -44 19t-18 44z" />
<glyph unicode="&#xf0;" horiz-adv-x="1527" d="M-10 887q0 27 14 46t41 19h72v621q0 25 20 45t49 20h580q176 0 326 -87.5t237.5 -237t87.5 -324.5v-340q0 -175 -87.5 -324.5t-237.5 -237t-326 -87.5h-580q-29 0 -47 18.5t-18 47.5l-4 647h-72q-25 0 -39 19t-14 46zM391 272h375q155 0 267 111.5t112 265.5v340 q0 154 -112 265.5t-267 111.5h-375v-414h281q28 0 47.5 -19.5t19.5 -45.5v-109q0 -26 -19.5 -45.5t-47.5 -19.5h-281v-441z" />
<glyph unicode="&#xf1;" horiz-adv-x="1499" d="M121 1573q0 26 18.5 45.5t46.5 19.5h152q38 0 55 -32v2l703 -1057v1022q0 26 19.5 45.5t47.5 19.5h140q28 0 47.5 -19.5t19.5 -45.5v-1507q0 -26 -19.5 -46t-47.5 -20h-140q-38 0 -57 31q-137 205 -711 1054v-1019q0 -26 -19.5 -46t-47.5 -20h-140q-28 0 -45.5 20 t-17.5 46zM414 1817q-18 15 0 59l45 111q11 24 34 31.5t54 -3.5q59 -22 111 -22t92 12t81.5 22t97.5 2t122 -42q24 -9 34 -29q20 -15 0 -57l-51 -111q-12 -27 -40.5 -31.5t-47.5 8.5q-46 30 -94.5 34t-93.5 -7.5t-91.5 -24t-105 -10.5t-117.5 29q-22 9 -30 29z" />
<glyph unicode="&#xf2;" horiz-adv-x="1628" d="M94 662v321q0 139 57.5 264.5t154 216t229.5 144t278 53.5q146 0 278 -53.5t227 -144t151.5 -216t56.5 -264.5v-321q0 -139 -57 -265t-153 -217t-228 -144.5t-277 -53.5t-277.5 53.5t-229 144.5t-153.5 217t-57 265zM371 662q0 -172 129.5 -295t310.5 -123q180 0 309 123 t129 295v321q0 172 -129 295t-309 123q-181 0 -310.5 -123.5t-129.5 -294.5v-321zM523.5 2061.5q13.5 17.5 51.5 17.5h146q77 0 113 -51l98 -181q18 -29 6 -47t-55 -18h-103q-58 0 -110 55l-142 178q-18 29 -4.5 46.5z" />
<glyph unicode="&#xf3;" horiz-adv-x="1628" d="M94 662v321q0 139 57.5 264.5t154 216t229.5 144t278 53.5q146 0 278 -53.5t227 -144t151.5 -216t56.5 -264.5v-321q0 -139 -57 -265t-153 -217t-228 -144.5t-277 -53.5t-277.5 53.5t-229 144.5t-153.5 217t-57 265zM371 662q0 -172 129.5 -295t310.5 -123q180 0 309 123 t129 295v321q0 172 -129 295t-309 123q-181 0 -310.5 -123.5t-129.5 -294.5v-321zM686 1800q-12 18 6 47l99 181q36 51 112 51h139q38 0 52 -17.5t-4 -46.5l-142 -178q-52 -55 -110 -55h-97q-43 0 -55 18z" />
<glyph unicode="&#xf4;" horiz-adv-x="1628" d="M94 662v321q0 139 57.5 264.5t154 216t229.5 144t278 53.5q146 0 278 -53.5t227 -144t151.5 -216t56.5 -264.5v-321q0 -139 -57 -265t-153 -217t-228 -144.5t-277 -53.5t-277.5 53.5t-229 144.5t-153.5 217t-57 265zM371 662q0 -172 129.5 -295t310.5 -123q180 0 309 123 t129 295v321q0 172 -129 295t-309 123q-181 0 -310.5 -123.5t-129.5 -294.5v-321zM420 1791.5q-10 22.5 22 53.5l193 178q48 56 115 56h106q40 0 66 -13.5t57 -42.5l190 -178q34 -31 24 -53.5t-54 -22.5h-138q-36 0 -60 11t-60 43l-76 69l-78 -69q-36 -32 -60.5 -43 t-60.5 -11h-133q-43 0 -53 22.5z" />
<glyph unicode="&#xf5;" horiz-adv-x="1628" d="M94 662v321q0 139 57.5 264.5t154 216t229.5 144t278 53.5q146 0 278 -53.5t227 -144t151.5 -216t56.5 -264.5v-321q0 -139 -57 -265t-153 -217t-228 -144.5t-277 -53.5t-277.5 53.5t-229 144.5t-153.5 217t-57 265zM371 662q0 -172 129.5 -295t310.5 -123q180 0 309 123 t129 295v321q0 172 -129 295t-309 123q-181 0 -310.5 -123.5t-129.5 -294.5v-321zM481 1847q-18 15 0 60l45 110q11 24 34 32t54 -3q59 -22 111 -22t92 11.5t81.5 21.5t97.5 2t122 -42q26 -10 35 -28q21 -15 0 -58l-51 -110q-12 -27 -40.5 -31.5t-47.5 8.5q-45 31 -93 35.5 t-93.5 -7.5t-92.5 -24.5t-106 -11t-117 28.5q-23 10 -31 28z" />
<glyph unicode="&#xf6;" horiz-adv-x="1628" d="M94 662v321q0 139 57.5 264.5t154 216t229.5 144t278 53.5q146 0 278 -53.5t227 -144t151.5 -216t56.5 -264.5v-321q0 -139 -57 -265t-153 -217t-228 -144.5t-277 -53.5t-277.5 53.5t-229 144.5t-153.5 217t-57 265zM371 662q0 -172 129.5 -295t310.5 -123q180 0 309 123 t129 295v321q0 172 -129 295t-309 123q-181 0 -310.5 -123.5t-129.5 -294.5v-321zM438 1841v137q0 24 18 42t46 18h135q28 0 46.5 -18t18.5 -42v-137q0 -25 -18 -43t-47 -18h-135q-28 0 -46 18t-18 43zM913 1841v137q0 24 18 42t44 18h135q30 0 49 -18t19 -42v-137 q0 -25 -19 -43t-49 -18h-135q-26 0 -44 18t-18 43z" />
<glyph unicode="&#xf7;" horiz-adv-x="1007" d="M102 715v129q0 26 19 45.5t47 19.5h661q29 0 48.5 -19.5t19.5 -45.5v-129q0 -26 -20 -46t-48 -20h-661q-28 0 -47 20t-19 46zM365 352v152q0 26 18.5 45.5t46.5 19.5h139q29 0 48.5 -19.5t19.5 -45.5v-152q0 -26 -19.5 -45.5t-48.5 -19.5h-139q-28 0 -46.5 19.5 t-18.5 45.5zM365 1069v152q0 26 18.5 45.5t46.5 19.5h139q29 0 48.5 -20t19.5 -45v-152q0 -25 -19.5 -45t-48.5 -20h-139q-28 0 -46.5 19.5t-18.5 45.5z" />
<glyph unicode="&#xf8;" horiz-adv-x="1628" d="M94 662v321q0 139 57.5 264.5t154 216t229.5 144t278 53.5q144 0 277 -53l10 -4l61 118q18 26 37.5 38t50.5 12h105q99 0 57 -86l-106 -211l12 -13q209 -209 209 -479v-321q0 -139 -57 -265t-153 -217t-228 -144.5t-277 -53.5q-128 0 -250 38l-72 -139 q-18 -26 -37.5 -37.5t-50.5 -11.5h-104q-54 0 -66.5 25.5t9.5 60.5l112 219q-24 18 -47 41q-100 94 -155.5 219.5t-55.5 264.5zM371 662q0 -81 35 -162q28 -65 73 -115l502 983q-73 33 -170 33q-181 0 -310.5 -123.5t-129.5 -294.5v-321zM684 260q69 -16 127 -16 q180 0 309 123t129 295v321q0 81 -35 162q-13 31 -43 72z" />
<glyph unicode="&#xf9;" horiz-adv-x="1433" d="M121 494v1079q0 65 65 65h138q30 0 45 -12.5t17.5 -26.5t2.5 -40v-1065q0 -93 68 -159.5t161 -66.5h158q106 0 182 74t76 178v1039q0 38 12.5 58.5t55.5 20.5h135q68 0 68 -65v-1053q0 -141 -72 -261t-194 -189.5t-263 -69.5h-158q-204 0 -350.5 143.5t-146.5 350.5z M444.5 2045q13.5 17 51.5 17h145q77 0 113 -51l98 -180q18 -29 6 -47.5t-55 -18.5h-103q-57 0 -110 56l-141 178q-18 29 -4.5 46z" />
<glyph unicode="&#xfa;" horiz-adv-x="1433" d="M121 494v1079q0 65 65 65h138q30 0 45 -12.5t17.5 -26.5t2.5 -40v-1065q0 -93 68 -159.5t161 -66.5h158q106 0 182 74t76 178v1039q0 38 12.5 58.5t55.5 20.5h135q68 0 68 -65v-1053q0 -141 -72 -261t-194 -189.5t-263 -69.5h-158q-204 0 -350.5 143.5t-146.5 350.5z M598 1783.5q-12 18.5 6 47.5l98 180q36 51 113 51h139q38 0 51.5 -17t-4.5 -46l-141 -178q-53 -56 -110 -56h-97q-43 0 -55 18.5z" />
<glyph unicode="&#xfb;" horiz-adv-x="1433" d="M121 1573q0 65 65 65h138q30 0 45 -12.5t17.5 -26.5t2.5 -40v-1065q0 -93 68 -159.5t161 -66.5h158q106 0 182 74t76 178v1039q0 38 12.5 58.5t55.5 20.5h135q68 0 68 -65v-1053q0 -141 -72 -261t-194 -189.5t-263 -69.5h-158q-101 0 -192 38.5t-157.5 103.5t-106 157 t-39.5 195zM318 1800q-10 22 22 53l192 179q47 55 115 55h107q41 0 67 -13t56 -42l190 -179q34 -31 23.5 -53t-54.5 -22h-137q-36 0 -60.5 11t-60.5 42l-76 70l-77 -70q-36 -31 -60.5 -42t-60.5 -11h-133q-43 0 -53 22z" />
<glyph unicode="&#xfc;" horiz-adv-x="1433" d="M121 494v1079q0 65 65 65h138q30 0 45 -12.5t17.5 -26.5t2.5 -40v-1065q0 -93 68 -159.5t161 -66.5h158q106 0 182 74t76 178v1039q0 38 12.5 58.5t55.5 20.5h135q68 0 68 -65v-1053q0 -141 -72 -261t-194 -189.5t-263 -69.5h-158q-204 0 -350.5 143.5t-146.5 350.5z M346 1831v129q0 24 18 41.5t46 17.5h133q26 0 44.5 -17.5t18.5 -41.5v-129q0 -23 -18.5 -40t-44.5 -17h-133q-29 0 -46.5 16.5t-17.5 40.5zM815 1831v129q0 24 18 41.5t44 17.5h133q28 0 46.5 -17.5t18.5 -41.5v-129q0 -24 -18 -40.5t-47 -16.5h-133q-26 0 -44 17t-18 40z " />
<glyph unicode="&#xfd;" horiz-adv-x="1425" d="M25 1575q0 63 63 63h182q39 0 60 -30l383 -568q326 502 387 576l-4 -4q20 26 55 26h184q66 0 66 -65q0 -20 -25 -55q0 -1 -1 -2.5t-1 -2.5l-2 -2l-526 -751v-680q0 -20 -1.5 -30.5t-7 -24t-20.5 -19.5t-39 -6h-139q-23 0 -37 6t-20 19t-7.5 24.5t-1.5 30.5v684l-540 772 q-8 14 -8 39zM584 1779.5q-12 18.5 6 47.5l98 180q36 51 113 51h139q38 0 51.5 -17t-4.5 -46l-141 -178q-53 -56 -111 -56h-96q-43 0 -55 18.5z" />
<glyph unicode="&#xfe;" horiz-adv-x="1325" d="M119 1573q0 26 19.5 45.5t47.5 19.5h140q23 0 37 -4.5t19.5 -14t7 -17.5t1.5 -23v-184h483q92 0 165.5 -29.5t118 -78.5t71.5 -111.5t27.5 -131.5t-16 -134t-56.5 -122.5t-97 -95.5q-131 -85 -159 -102l-537 -297v-213q0 -19 -1.5 -30.5t-7 -24.5t-19.5 -19t-37 -6h-140 q-28 0 -45.5 20t-17.5 46zM391 600q165 87 332 182q85 52 106 68q81 61 89 74q40 63 24 131q-15 67 -82 67h-469v-522z" />
<glyph unicode="&#xff;" horiz-adv-x="1425" d="M25 1575q0 63 63 63h182q39 0 60 -30l383 -568q326 502 387 576l-4 -4q20 26 55 26h184q66 0 66 -65q0 -20 -25 -55q0 -1 -1 -2.5t-1 -2.5l-2 -2l-526 -751v-680q0 -20 -1.5 -30.5t-7 -24t-20.5 -19.5t-39 -6h-139q-23 0 -37 6t-20 19t-7.5 24.5t-1.5 30.5v684l-540 772 q-8 14 -8 39zM348 1827v143q0 26 18 45t46 19h133q26 0 44.5 -19.5t18.5 -44.5v-143q0 -25 -18.5 -44.5t-44.5 -19.5h-133q-28 0 -46 19t-18 45zM815 1827v143q0 25 18 44.5t44 19.5h133q28 0 46.5 -19t18.5 -45v-143q0 -26 -18.5 -45t-46.5 -19h-133q-26 0 -44 19.5 t-18 44.5z" />
<glyph unicode="&#x152;" horiz-adv-x="2019" d="M94 662v321q0 140 56 264.5t155 206.5q100 87 231 135.5t277 48.5h1024q24 0 39 -6t20.5 -19t7 -23.5t1.5 -30.5v-107q0 -55 -13.5 -67.5t-68.5 -12.5h-606v-368h520q29 0 47 -19t18 -49v-139q0 -30 -18 -49t-47 -19h-520v-463h632q55 0 68.5 -12.5t13.5 -67.5v-104 q0 -17 -0.5 -25t-3.5 -21t-10 -19.5t-20 -11.5t-33 -5h-1053q-262 0 -436 119q-179 122 -230 260q-51 134 -51 283zM371 662q0 -131 72.5 -223.5t195.5 -137.5q93 -39 164 -39h151v1129h-149q-87 0 -166 -33q-123 -49 -195.5 -146t-72.5 -229v-321z" />
<glyph unicode="&#x153;" horiz-adv-x="2019" d="M94 662v321q0 140 56 264.5t155 206.5q100 87 231 135.5t277 48.5h1024q24 0 39 -6t20.5 -19t7 -23.5t1.5 -30.5v-107q0 -55 -13.5 -67.5t-68.5 -12.5h-606v-368h520q29 0 47 -19t18 -49v-139q0 -30 -18 -49t-47 -19h-520v-463h632q55 0 68.5 -12.5t13.5 -67.5v-104 q0 -17 -0.5 -25t-3.5 -21t-10 -19.5t-20 -11.5t-33 -5h-1053q-262 0 -436 119q-179 122 -230 260q-51 134 -51 283zM371 662q0 -131 72.5 -223.5t195.5 -137.5q93 -39 164 -39h151v1129h-149q-87 0 -166 -33q-123 -49 -195.5 -146t-72.5 -229v-321z" />
<glyph unicode="&#x178;" horiz-adv-x="1425" d="M25 1575q0 63 63 63h182q39 0 60 -30l383 -568q326 502 387 576l-4 -4q20 26 55 26h184q66 0 66 -65q0 -20 -25 -55q0 -1 -1 -2.5t-1 -2.5l-2 -2l-526 -751v-680q0 -20 -1.5 -30.5t-7 -24t-20.5 -19.5t-39 -6h-139q-23 0 -37 6t-20 19t-7.5 24.5t-1.5 30.5v684l-540 772 q-8 14 -8 39zM348 1827v143q0 26 18 45t46 19h133q26 0 44.5 -19.5t18.5 -44.5v-143q0 -25 -18.5 -44.5t-44.5 -19.5h-133q-28 0 -46 19t-18 45zM815 1827v143q0 25 18 44.5t44 19.5h133q28 0 46.5 -19t18.5 -45v-143q0 -26 -18.5 -45t-46.5 -19h-133q-26 0 -44 19.5 t-18 44.5z" />
<glyph unicode="&#x2c6;" horiz-adv-x="854" d="M28.5 1354.5q-9.5 23.5 20.5 52.5l193 178q47 55 114 55h107q41 0 67 -13t56 -42l190 -178q34 -31 23.5 -53.5t-54.5 -22.5h-137q-36 0 -60.5 11t-60.5 42l-75 70l-78 -70q-36 -31 -60.5 -42t-60.5 -11h-133q-42 0 -51.5 23.5z" />
<glyph unicode="&#x2dc;" horiz-adv-x="811" d="M59 1421q-18 15 0 60l45 110q11 24 34.5 32t54.5 -3q59 -22 111 -22t91.5 11.5t81 21.5t97.5 2t122 -42q26 -10 35 -28q21 -15 0 -58l-51 -110q-12 -27 -40.5 -31.5t-47.5 8.5q-45 31 -93 35.5t-93.5 -7.5t-92.5 -24.5t-106 -11t-117 28.5q-23 10 -31 28z" />
<glyph unicode="&#x2000;" horiz-adv-x="1043" />
<glyph unicode="&#x2001;" horiz-adv-x="2087" />
<glyph unicode="&#x2002;" horiz-adv-x="1043" />
<glyph unicode="&#x2003;" horiz-adv-x="2087" />
<glyph unicode="&#x2004;" horiz-adv-x="695" />
<glyph unicode="&#x2005;" horiz-adv-x="521" />
<glyph unicode="&#x2006;" horiz-adv-x="347" />
<glyph unicode="&#x2007;" horiz-adv-x="347" />
<glyph unicode="&#x2008;" horiz-adv-x="260" />
<glyph unicode="&#x2009;" horiz-adv-x="417" />
<glyph unicode="&#x200a;" horiz-adv-x="115" />
<glyph unicode="&#x2010;" horiz-adv-x="1007" d="M90 715v129q0 26 19 45.5t47 19.5h661q29 0 48.5 -19.5t19.5 -45.5v-129q0 -26 -20 -46t-48 -20h-661q-28 0 -47 20t-19 46z" />
<glyph unicode="&#x2011;" horiz-adv-x="1007" d="M90 715v129q0 26 19 45.5t47 19.5h661q29 0 48.5 -19.5t19.5 -45.5v-129q0 -26 -20 -46t-48 -20h-661q-28 0 -47 20t-19 46z" />
<glyph unicode="&#x2012;" horiz-adv-x="1007" d="M90 715v129q0 26 19 45.5t47 19.5h661q29 0 48.5 -19.5t19.5 -45.5v-129q0 -26 -20 -46t-48 -20h-661q-28 0 -47 20t-19 46z" />
<glyph unicode="&#x2013;" horiz-adv-x="1236" d="M90 715v129q0 26 24.5 45.5t60.5 19.5h851q38 0 63 -19.5t25 -45.5v-129q0 -26 -26 -46t-62 -20h-851q-36 0 -60.5 20t-24.5 46z" />
<glyph unicode="&#x2014;" horiz-adv-x="2260" d="M90 715v129q0 26 49 45.5t121 19.5h1703q75 0 125 -19.5t50 -45.5v-129q0 -26 -51.5 -46t-123.5 -20h-1703q-72 0 -121 20t-49 46z" />
<glyph unicode="&#x2018;" horiz-adv-x="462" d="M104 1130v451q0 28 20 47t46 19h125q26 0 45.5 -19t19.5 -47v-451q0 -28 -19.5 -47.5t-45.5 -19.5h-125q-26 0 -46 19.5t-20 47.5z" />
<glyph unicode="&#x2019;" horiz-adv-x="462" d="M104 1130v451q0 28 20 47t46 19h125q26 0 45.5 -19t19.5 -47v-451q0 -28 -19.5 -47.5t-45.5 -19.5h-125q-26 0 -46 19.5t-20 47.5z" />
<glyph unicode="&#x201a;" horiz-adv-x="462" d="M104 -35v447q0 28 20 46.5t46 18.5h125q26 0 45.5 -18.5t19.5 -46.5v-447q0 -28 -19.5 -47.5t-45.5 -19.5h-125q-26 0 -46 19.5t-20 47.5z" />
<glyph unicode="&#x201c;" horiz-adv-x="862" d="M104 1130v451q0 28 20 47t46 19h125q26 0 45.5 -19t19.5 -47v-451q0 -28 -19.5 -47.5t-45.5 -19.5h-125q-26 0 -46 19.5t-20 47.5zM506 1130v451q0 28 19.5 47t45.5 19h125q26 0 46 -19t20 -47v-451q0 -28 -20 -47.5t-46 -19.5h-125q-26 0 -45.5 19.5t-19.5 47.5z" />
<glyph unicode="&#x201d;" horiz-adv-x="862" d="M104 1130v451q0 28 20 47t46 19h125q26 0 45.5 -19t19.5 -47v-451q0 -28 -19.5 -47.5t-45.5 -19.5h-125q-26 0 -46 19.5t-20 47.5zM506 1130v451q0 28 19.5 47t45.5 19h125q26 0 46 -19t20 -47v-451q0 -28 -20 -47.5t-46 -19.5h-125q-26 0 -45.5 19.5t-19.5 47.5z" />
<glyph unicode="&#x201e;" horiz-adv-x="862" d="M104 -33v447q0 28 20 46.5t46 18.5h125q26 0 45.5 -18.5t19.5 -46.5v-447q0 -28 -19.5 -47.5t-45.5 -19.5h-125q-26 0 -46 19.5t-20 47.5zM506 -33v447q0 28 19.5 46.5t45.5 18.5h125q26 0 46 -18.5t20 -46.5v-447q0 -28 -20 -47.5t-46 -19.5h-125q-26 0 -45.5 19.5 t-19.5 47.5z" />
<glyph unicode="&#x2022;" horiz-adv-x="727" d="M123 811q0 99 69 170.5t168 71.5q102 0 175 -71.5t73 -170.5t-73 -170.5t-175 -71.5q-99 0 -168 71.5t-69 170.5z" />
<glyph unicode="&#x2026;" horiz-adv-x="1435" d="M127 66v151q0 26 19 46t47 20h139q28 0 47.5 -20t19.5 -46v-151q0 -26 -19.5 -46t-47.5 -20h-139q-28 0 -47 20t-19 46zM578 66v151q0 26 18.5 46t46.5 20h139q28 0 48 -20t20 -46v-151q0 -26 -20 -46t-48 -20h-139q-28 0 -46.5 20t-18.5 46zM1028 66v151q0 26 19 46 t47 20h139q28 0 47.5 -20t19.5 -46v-151q0 -26 -19.5 -46t-47.5 -20h-139q-28 0 -47 20t-19 46z" />
<glyph unicode="&#x202f;" horiz-adv-x="417" />
<glyph unicode="&#x2039;" horiz-adv-x="1007" d="M154 733q0 23 24 51t166 168q165 163 295 293q17 17 41 17t41 -17l106 -104q17 -24 17 -41q0 -24 -17 -41l-325 -326l307 -307q16 -16 16 -41t-16 -41l-104 -104q-17 -17 -41 -17t-41 17q-158 158 -332 327q-101 97 -119 119t-18 47z" />
<glyph unicode="&#x203a;" horiz-adv-x="1007" d="M154 1100q0 19 16 41l106 104q17 17 41 17t41 -17q178 -181 363 -363q90 -89 106.5 -108.5t16.5 -40.5q0 -25 -17.5 -46t-119.5 -120q-174 -169 -332 -327q-17 -17 -41 -17t-41 17l-105 104q-16 16 -16 41t16 41l308 307l-326 326q-16 16 -16 41z" />
<glyph unicode="&#x205f;" horiz-adv-x="521" />
<glyph unicode="&#x20ac;" horiz-adv-x="1546" d="M18 981v129q0 26 19 46t47 20h131q59 213 237 351t404 138q247 0 428.5 -154t231.5 -397q0 -1 -1.5 -10t-1.5 -10q-18 -60 -63 -60h-137q-41 0 -64 45q-4 12 -12.5 35.5t-13 35.5t-12 29.5t-15.5 31.5t-18 28q-56 76 -140 118t-182 42q-115 0 -211.5 -61.5t-146.5 -161.5 h473q28 0 47.5 -20t19.5 -46v-129q0 -26 -19.5 -46t-47.5 -20h-514v-190h514q28 0 47.5 -20t19.5 -46v-129q0 -26 -19.5 -45.5t-47.5 -19.5h-473q51 -102 146.5 -163.5t211.5 -61.5q98 0 182 42.5t144 120.5q46 61 73 177l-2 -5q9 56 64 56h137q28 0 47 -20t19 -46 q0 -52 -27 -127q-70 -198 -249.5 -329.5t-387.5 -131.5q-227 0 -406.5 137t-236.5 351h-129q-26 0 -43.5 19.5t-17.5 45.5v129q0 26 16.5 46t44.5 20h106v190h-106q-28 0 -47 20t-19 46z" />
<glyph unicode="&#x2122;" horiz-adv-x="1609" d="M82 1491v102q0 39 37 39h575h6h103q22 0 31 -16l243 -297l244 297q9 16 31 16h102q39 0 39 -39v-749q0 -39 -39 -39h-106q-39 0 -39 39v467l-166 -201q-9 -18 -35 -18h-64q-23 0 -32 18l-166 201v-467q0 -39 -39 -39h-107q-38 0 -38 39v610h-150v-610q0 -39 -41 -39h-104 q-37 0 -37 39v610h-211q-37 0 -37 37z" />
<glyph unicode="&#x25fc;" horiz-adv-x="1640" d="M0 0v1640h1640v-1640h-1640z" />
</font>
</defs>
</svg>
